<?xml version="1.0" standalone="no"?>
<!DOCTYPE svg PUBLIC "-//W3C//DTD SVG 20010904//EN"
 "http://www.w3.org/TR/2001/REC-SVG-20010904/DTD/svg10.dtd">
<svg version="1.0" xmlns="http://www.w3.org/2000/svg"
 width="2816.000000pt" height="1536.000000pt" viewBox="0 0 2816.000000 1536.000000"
 preserveAspectRatio="xMidYMid meet">

<g transform="translate(0.000000,1536.000000) scale(0.100000,-0.100000)"
fill="#000000" stroke="none">
<path d="M17051 14138 c-35 -12 -48 -31 -54 -74 -3 -21 -11 -64 -17 -94 -41
-202 -58 -303 -64 -381 -2 -25 -9 -55 -15 -67 -6 -11 -11 -40 -11 -64 0 -24
-7 -65 -15 -92 -8 -27 -15 -65 -15 -85 0 -20 -7 -58 -15 -85 -8 -27 -15 -71
-15 -98 0 -26 -4 -48 -8 -48 -4 0 -9 -12 -10 -27 -5 -68 -12 -112 -22 -137 -5
-15 -10 -56 -10 -92 0 -35 -4 -64 -9 -64 -5 0 -12 -24 -15 -52 -10 -83 -27
-138 -43 -138 -7 0 -16 8 -19 18 -3 9 -12 30 -20 45 -7 16 -14 39 -14 52 0 12
-6 27 -13 33 -7 6 -14 23 -15 39 -1 15 -7 29 -12 31 -6 2 -10 11 -10 20 0 10
-7 30 -15 46 -8 15 -15 34 -15 41 0 7 -7 26 -15 41 -8 16 -15 36 -15 44 0 9
-4 20 -8 25 -5 6 -19 42 -31 82 -13 42 -34 83 -49 99 -23 22 -33 25 -72 21
-24 -3 -46 -10 -48 -16 -2 -6 -10 -18 -18 -25 -8 -8 -14 -21 -14 -28 0 -7 -7
-22 -15 -32 -8 -11 -15 -30 -15 -43 0 -13 -4 -23 -10 -23 -5 0 -10 -5 -10 -11
0 -6 -7 -27 -16 -47 -8 -21 -21 -50 -28 -67 -8 -16 -21 -50 -31 -75 -10 -25
-21 -54 -25 -65 -5 -11 -17 -44 -27 -74 -10 -29 -23 -55 -29 -58 -5 -2 -193
-5 -417 -6 l-406 -2 -23 -23 c-18 -17 -23 -34 -23 -73 0 -43 4 -54 28 -75 l29
-25 465 3 465 3 24 30 c13 17 27 45 30 63 3 18 10 34 14 37 5 3 11 23 15 45 4
22 11 40 16 40 5 0 9 15 10 33 1 33 45 117 66 124 13 5 45 -61 69 -142 9 -33
23 -74 30 -92 8 -17 14 -38 14 -46 0 -9 5 -19 10 -22 6 -3 10 -16 10 -28 0
-12 7 -31 15 -41 8 -11 15 -28 15 -38 0 -9 7 -34 16 -55 9 -21 21 -49 26 -63
6 -14 16 -38 24 -53 8 -16 14 -37 14 -47 0 -9 7 -23 15 -30 8 -7 15 -22 15
-34 0 -31 40 -66 82 -73 30 -4 41 -1 68 25 22 22 33 42 35 69 2 21 8 54 14 73
6 19 11 62 11 95 0 34 4 65 10 71 5 5 14 48 19 94 5 47 14 110 20 140 11 57
27 156 37 225 3 22 9 45 12 50 4 6 9 64 13 130 5 86 12 133 26 165 11 25 23
74 26 109 4 36 11 69 16 74 13 13 38 -38 46 -98 4 -28 13 -88 21 -134 8 -46
14 -110 14 -142 0 -33 4 -59 9 -59 5 0 12 -48 16 -107 4 -60 11 -112 15 -118
4 -5 10 -50 14 -98 3 -49 10 -96 15 -105 5 -9 9 -52 10 -96 1 -43 8 -97 16
-120 8 -22 15 -65 15 -94 0 -29 4 -61 9 -70 5 -9 11 -58 15 -109 3 -51 11
-104 16 -118 6 -15 10 -52 10 -83 0 -32 5 -73 11 -92 7 -19 15 -69 19 -110 14
-142 28 -195 60 -213 53 -32 120 -12 120 35 0 9 7 21 15 28 10 8 15 30 15 61
0 26 4 50 9 54 6 3 13 27 17 53 3 26 10 52 14 57 4 6 10 30 14 55 4 24 11 49
15 55 5 5 11 33 14 62 3 28 10 60 16 71 6 12 11 35 11 52 0 17 7 47 15 67 8
19 15 46 15 60 0 13 5 33 10 43 6 11 11 41 12 67 1 27 8 58 16 70 9 15 13 43
10 83 -2 47 0 57 8 45 11 -14 12 -14 18 1 3 8 6 33 6 54 0 21 4 41 9 44 5 3
12 26 15 51 4 24 11 47 17 50 5 4 9 27 9 53 0 27 7 57 16 70 11 16 15 39 12
76 -2 36 1 53 9 53 7 0 10 -4 6 -9 -3 -5 8 -8 23 -6 19 2 30 10 32 22 3 13 0
16 -10 11 -7 -5 -9 -4 -5 0 15 17 36 14 29 -3 -5 -15 -4 -15 11 -3 14 11 15
17 5 30 -12 14 -11 14 5 2 14 -11 17 -11 17 0 0 11 2 11 10 -1 5 -8 10 -19 10
-25 0 -5 -4 -4 -9 4 -6 9 -11 10 -15 2 -4 -6 -2 -11 3 -11 6 0 11 -5 11 -11 0
-8 -5 -8 -15 1 -15 12 -21 3 -16 -24 1 -5 -5 -4 -13 4 -14 11 -16 8 -16 -18 0
-16 7 -43 15 -58 8 -16 15 -39 15 -51 0 -13 4 -23 10 -23 5 0 12 -16 16 -35 8
-44 20 -45 26 -3 4 21 0 36 -9 43 -7 5 -16 23 -19 40 -3 16 -10 35 -15 41 -12
15 -8 75 6 70 5 -2 9 -10 7 -17 -2 -8 0 -10 4 -6 8 8 15 31 17 60 1 10 7 15
15 12 7 -2 10 -1 7 4 -3 5 -1 12 3 15 15 9 32 -40 19 -53 -8 -8 -8 -14 2 -23
10 -11 11 -10 5 5 -5 13 -2 16 9 11 11 -4 15 -17 14 -44 -2 -21 -1 -37 2 -35
2 3 10 0 17 -6 10 -8 11 -16 3 -31 -6 -11 -8 -22 -5 -25 3 -4 0 -13 -6 -22 -7
-9 -3 -8 10 4 19 16 25 17 32 5 4 -7 7 -21 5 -31 -2 -10 11 -30 30 -48 27 -24
44 -31 76 -31 46 0 48 -10 2 -14 -15 -1 -35 -6 -43 -11 -21 -13 -41 -15 -34
-4 3 5 9 7 14 4 5 -3 11 -1 14 4 3 5 -5 11 -19 13 -16 4 -26 0 -29 -11 -3 -9
-4 -1 -2 17 1 18 -1 29 -6 24 -4 -4 -9 -20 -10 -34 -1 -15 -5 -25 -8 -23 -4 2
-6 17 -5 32 1 15 0 20 -2 11 -2 -10 -9 -18 -15 -18 -6 0 -8 -3 -5 -7 12 -11
-13 -31 -33 -26 -14 4 -20 15 -21 34 -2 42 -3 46 -12 56 -5 4 -8 4 -6 -2 1 -5
-1 -18 -5 -27 -5 -10 -1 -30 8 -49 9 -18 16 -42 16 -53 0 -12 13 -36 30 -54
l30 -33 152 6 c84 3 166 6 181 6 59 2 -7 19 -85 22 -22 0 -25 3 -16 14 12 15
22 18 13 3 -3 -5 -1 -10 4 -10 15 0 14 23 -1 39 -7 7 -8 12 -3 11 21 -5 25 1
15 20 -6 11 -7 20 -3 21 4 0 19 2 32 5 14 2 28 -1 33 -8 6 -10 8 -10 8 0 0 7
4 11 9 7 5 -3 13 -1 16 5 5 8 12 7 23 -2 14 -10 15 -10 5 2 -8 9 -39 14 -89
16 -41 1 -78 5 -81 8 -9 9 710 7 724 -2 7 -5 14 -20 15 -34 1 -15 6 -24 10
-22 15 10 8 41 -15 62 -23 22 -26 22 -438 22 -403 0 -415 1 -432 20 -9 11 -17
34 -17 50 0 21 -5 30 -16 30 -9 0 -14 8 -13 18 3 35 -1 51 -13 47 -9 -4 -13 7
-14 32 0 20 -6 39 -12 41 -7 2 -12 17 -12 33 0 19 -5 29 -15 29 -11 0 -15 11
-15 40 0 22 -4 40 -9 40 -5 0 -12 18 -16 40 -4 22 -11 42 -16 46 -5 3 -9 16
-9 28 0 13 -7 29 -15 36 -8 7 -15 21 -15 32 0 10 -7 21 -15 24 -8 4 -15 18
-15 34 0 22 -7 31 -35 44 -55 27 -115 -4 -115 -58 0 -14 -4 -27 -9 -30 -5 -3
-12 -27 -16 -52 -4 -26 -10 -54 -15 -63 -8 -16 -25 -91 -39 -171 -4 -25 -13
-55 -19 -67 -7 -12 -12 -42 -12 -67 0 -25 -4 -46 -10 -46 -5 0 -12 -23 -16
-50 -4 -28 -10 -53 -15 -56 -4 -2 -11 -32 -15 -65 -4 -32 -11 -62 -15 -65 -5
-3 -9 -25 -9 -48 0 -24 -7 -57 -15 -72 -8 -16 -15 -43 -15 -60 0 -16 -4 -34
-9 -40 -5 -5 -15 -34 -21 -64 -33 -159 -33 -160 -50 -160 -27 0 -36 20 -39 90
-1 36 -9 84 -17 108 -8 23 -14 75 -14 115 0 45 -5 78 -12 86 -11 11 -10 12 2
6 13 -8 13 -6 1 8 -8 10 -15 53 -18 109 -3 51 -8 98 -13 103 -4 6 -10 53 -13
105 -3 52 -10 108 -16 123 -6 16 -11 57 -11 93 0 46 -4 64 -13 64 -10 0 -14
26 -16 107 -1 59 -6 112 -11 118 -4 5 -11 52 -15 103 -4 51 -11 94 -15 97 -4
2 -8 36 -9 74 -2 82 -7 109 -20 125 -5 6 -11 54 -14 106 -3 52 -10 115 -16
140 -6 25 -10 68 -11 97 0 28 -4 55 -10 58 -5 3 -10 14 -10 24 0 38 -63 66
-109 49z m823 -891 c14 -8 23 -17 20 -20 -4 -3 -3 -14 0 -24 4 -10 7 -20 6
-22 -1 -2 4 -7 10 -11 8 -5 7 -9 -5 -13 -10 -5 -14 -3 -9 4 4 7 1 10 -7 7 -8
-3 -13 -10 -12 -15 1 -5 -9 -9 -22 -9 -20 0 -27 11 -7 11 13 0 32 16 32 27 0
6 -7 5 -17 -3 -14 -12 -16 -12 -8 0 6 11 4 13 -7 8 -15 -5 -48 20 -48 38 0 8
31 34 41 35 4 0 18 -6 33 -13z m123 -312 c-4 -31 -15 -43 -12 -13 4 35 5 38
10 38 3 0 4 -11 2 -25z m198 -404 c3 -5 2 -12 -3 -15 -5 -3 -9 1 -9 9 0 17 3
19 12 6z m115 -1 c5 9 9 8 13 -3 4 -10 0 -14 -11 -13 -9 2 -17 8 -18 15 -2 8
-1 8 3 0 4 -8 7 -8 13 1z m-42 -45 c-3 -3 -9 2 -12 12 -6 14 -5 15 5 6 7 -7
10 -15 7 -18z m-583 -24 c-9 -8 -36 -10 -30 -2 2 4 11 8 20 8 8 0 13 -3 10 -6z
m42 -24 c0 -8 -6 -14 -14 -14 -9 0 -10 4 -2 14 6 7 12 13 14 13 1 0 2 -6 2
-13z m-102 -18 c-5 -13 -3 -19 3 -15 5 3 16 -2 23 -12 7 -9 9 -14 5 -10 -5 4
-15 3 -23 -3 -7 -6 -13 -10 -14 -8 -7 36 -8 46 -4 57 8 21 17 13 10 -9z m78
-51 c-10 -12 -14 -27 -10 -47 4 -19 2 -33 -6 -37 -7 -4 -9 -4 -5 1 4 4 3 15
-2 25 -6 11 -4 25 4 41 14 27 16 34 16 52 0 8 3 7 10 -3 6 -10 4 -20 -7 -32z
m-36 -43 c-2 -19 -6 -37 -9 -41 -4 -3 -5 2 -4 13 5 25 -5 38 -16 22 -8 -11 -9
-11 -5 1 2 8 10 14 16 13 6 -2 11 4 11 13 0 9 -5 12 -12 8 -7 -4 -8 -3 -4 5
13 20 26 1 23 -34z"/>
<path d="M17823 13225 c0 -8 4 -15 9 -15 5 0 7 -4 4 -8 -3 -5 5 -8 17 -7 12 1
29 -3 37 -9 8 -6 7 -1 -3 11 -11 13 -26 19 -35 16 -12 -4 -12 -1 3 10 20 16
20 16 -6 17 -16 0 -26 -5 -26 -15z"/>
<path d="M13710 13449 c-192 -12 -516 -53 -715 -90 -293 -54 -473 -101 -820
-214 -324 -106 -795 -320 -1032 -471 -51 -33 -53 -35 -53 -80 0 -37 7 -56 34
-93 18 -25 44 -70 57 -98 13 -29 31 -53 39 -53 17 0 10 -3 210 107 80 43 184
98 232 121 239 113 615 260 798 312 257 73 333 92 495 124 165 32 238 44 440
75 39 6 126 16 195 21 69 6 142 13 162 16 50 8 643 8 704 0 27 -3 117 -11 199
-16 83 -6 175 -15 205 -21 30 -5 123 -21 205 -34 281 -45 628 -127 785 -185
59 -22 90 -25 90 -11 0 5 7 16 15 24 8 8 16 29 17 45 1 17 5 29 9 26 8 -5 19
21 19 47 0 10 4 19 9 19 5 0 12 18 16 40 4 22 10 38 15 35 7 -4 25 44 18 50
-9 8 -447 131 -533 150 -33 7 -89 20 -125 29 -72 17 -65 15 -280 51 -356 58
-651 82 -1015 82 -143 0 -321 -3 -395 -8z m2290 -383 c0 -3 -4 -8 -10 -11 -5
-3 -10 -1 -10 4 0 6 5 11 10 11 6 0 10 -2 10 -4z"/>
<path d="M9853 13386 l-33 -15 0 -104 c0 -100 -14 -166 -39 -181 -10 -7 -81
68 -81 86 0 7 -12 38 -27 70 -30 66 -52 78 -113 59 -42 -13 -90 -55 -90 -81 0
-9 16 -48 36 -86 61 -116 57 -188 -16 -284 -32 -43 -74 -129 -94 -195 -48
-159 -20 -382 68 -532 40 -69 98 -133 120 -133 18 0 51 34 70 70 17 33 66 123
107 194 31 56 32 61 30 169 -1 99 2 118 23 162 28 60 50 85 96 114 41 25 131
28 170 6 28 -16 81 -20 95 -6 6 5 64 32 130 61 66 29 124 56 128 59 8 8 -5 38
-42 91 -24 34 -46 57 -111 114 l-33 29 6 79 c3 44 10 85 16 91 6 6 11 28 11
49 0 32 -5 41 -32 58 -22 14 -47 20 -73 18 -37 -3 -42 -7 -64 -53 -27 -55 -36
-78 -46 -113 -8 -30 -41 -47 -49 -26 -3 8 -6 60 -7 114 -1 73 -5 102 -15 111
-23 19 -105 21 -141 5z"/>
<path d="M9110 12999 c-84 -30 -93 -43 -79 -115 6 -32 13 -140 16 -239 4 -157
2 -191 -16 -264 -11 -47 -19 -86 -17 -88 2 -2 41 17 87 41 46 24 104 50 129
56 85 21 80 17 78 68 -5 109 14 209 60 312 18 41 18 149 0 188 -29 61 -148 80
-258 41z"/>
<path d="M17985 12811 c-3 -5 -2 -12 3 -15 5 -3 9 1 9 9 0 17 -3 19 -12 6z"/>
<path d="M18014 12796 c0 -18 4 -22 21 -17 17 4 18 6 2 9 -9 2 -15 7 -12 12 3
5 2 11 -3 14 -4 2 -8 -6 -8 -18z"/>
<path d="M10592 12790 c-90 -22 -205 -63 -322 -117 -101 -47 -186 -60 -250
-39 -64 21 -64 21 -104 -15 -52 -45 -72 -122 -55 -211 17 -94 18 -91 -149
-413 -9 -16 -51 -66 -95 -112 -79 -82 -79 -83 -84 -145 -6 -75 9 -137 39 -165
13 -12 57 -35 99 -52 70 -29 130 -73 117 -86 -3 -4 -27 8 -54 24 -45 29 -114
43 -114 23 0 -4 13 -26 28 -48 32 -44 56 -112 50 -140 -3 -14 -12 -3 -32 38
-15 31 -53 86 -86 122 -32 36 -65 80 -73 98 -32 71 -47 120 -47 148 0 18 -5
30 -13 30 -18 0 -111 -65 -162 -114 -44 -41 -45 -44 -45 -105 0 -80 26 -203
56 -266 30 -64 70 -105 141 -145 59 -33 133 -104 133 -127 0 -21 -16 -15 -36
13 -21 28 -101 84 -120 84 -8 0 -10 -12 -7 -40 8 -54 -9 -51 -43 8 -15 26 -42
64 -59 84 -55 65 -125 227 -125 288 0 34 -23 41 -39 13 -28 -54 -62 -181 -68
-251 -5 -71 -3 -86 17 -124 68 -132 263 -341 402 -432 317 -206 829 -372 1035
-336 105 18 156 51 230 150 136 182 233 517 233 807 0 151 -26 281 -78 391
-28 59 -61 82 -116 82 -52 0 -151 25 -256 66 -129 49 -145 52 -136 28 4 -10
11 -44 16 -74 4 -31 14 -76 21 -100 34 -121 216 -320 322 -354 10 -3 16 -10
12 -15 -6 -11 -58 2 -91 24 -13 8 -27 15 -32 15 -11 0 -2 -232 10 -247 5 -7 7
-17 3 -23 -5 -7 -15 1 -28 22 -15 24 -22 56 -25 116 -7 119 -25 158 -116 252
-43 44 -82 80 -85 80 -4 0 -23 -46 -41 -102 -46 -141 -46 -251 -1 -420 18 -66
31 -142 31 -174 0 -58 -35 -184 -51 -184 -5 0 -9 -6 -9 -14 0 -7 -11 -21 -25
-30 -14 -9 -25 -12 -25 -7 0 5 3 11 8 13 18 8 43 86 48 151 6 74 -8 180 -27
203 -8 10 -21 2 -58 -34 -49 -49 -125 -112 -135 -112 -20 0 1 33 47 72 77 66
120 166 98 229 -14 39 -15 182 -1 228 5 19 7 37 4 42 -6 11 -143 -64 -176 -97
-15 -14 -30 -38 -33 -53 -3 -14 -15 -37 -26 -51 l-21 -25 6 49 c3 27 13 60 21
73 15 22 14 23 -8 23 -13 0 -28 -5 -35 -12 -7 -7 -12 -8 -12 -2 0 11 23 26
110 72 145 77 188 122 225 235 8 26 15 60 15 75 0 35 -29 132 -74 247 -40 102
-42 128 -20 217 53 207 226 359 483 424 52 13 100 29 107 34 34 29 16 177 -28
216 -27 26 -117 27 -216 4z"/>
<path d="M17973 12770 c2 -8 9 -16 15 -16 23 -3 24 -4 12 -19 -10 -11 -9 -18
4 -31 9 -8 14 -19 11 -24 -3 -5 0 -12 6 -16 7 -4 9 -3 6 3 -4 6 3 13 15 16 17
5 19 9 10 20 -7 8 -13 26 -14 40 -2 19 -6 23 -14 16 -9 -7 -16 -5 -23 8 -8 14
-10 15 -11 3 0 -13 -1 -13 -11 0 -9 13 -10 13 -6 0z m54 -27 c-4 -3 -1 -16 7
-28 12 -18 12 -22 1 -22 -8 0 -14 3 -13 6 2 22 -4 31 -14 25 -9 -5 -9 -2 1 9
7 9 16 17 19 17 3 0 2 -3 -1 -7z"/>
<path d="M18050 12593 c-5 -31 -4 -43 3 -43 4 0 7 3 8 8 0 4 6 13 12 21 9 11
9 13 0 8 -6 -4 -14 -1 -16 5 -4 10 -6 10 -7 1z"/>
<path d="M18353 12525 c1 -11 -2 -26 -6 -32 -5 -7 -4 -13 2 -13 6 0 8 -8 4
-17 -3 -10 -4 -16 -2 -13 35 41 43 54 27 41 -22 -17 -23 -8 -2 27 13 21 13 23
1 9 -15 -18 -15 -18 -20 0 -5 15 -5 15 -4 -2z"/>
<path d="M19030 12478 c0 -35 -11 -38 -171 -44 -219 -7 -173 -16 90 -16 84 0
119 28 91 72 -8 12 -10 9 -10 -12z"/>
<path d="M10783 12348 l-93 -41 -75 32 c-41 17 -84 31 -96 31 -28 0 -109 -81
-143 -144 -60 -109 -70 -182 -33 -237 41 -61 176 -124 391 -184 111 -31 122
-26 131 52 10 86 7 83 82 83 92 1 103 10 103 92 0 44 -5 69 -14 77 -9 8 -48
11 -106 10 -71 -1 -95 2 -107 14 -24 23 -11 40 46 61 73 26 101 51 101 90 0
47 -44 106 -79 106 -9 0 -58 -19 -108 -42z"/>
<path d="M14094 12343 c3 -10 7 -32 8 -50 1 -17 6 -29 10 -27 4 3 8 -10 7 -28
0 -27 -2 -30 -9 -13 -7 16 -9 11 -9 -22 -1 -51 7 -75 23 -66 7 5 7 2 -1 -8 -7
-9 -9 -20 -3 -29 5 -9 5 -19 -1 -26 -6 -7 -6 -15 -1 -18 9 -5 8 -39 -4 -96
-17 -84 1 -1791 26 -2435 5 -137 9 -340 10 -449 0 -110 2 -197 4 -195 3 2 5
121 7 264 1 143 4 265 8 270 3 6 6 33 7 60 2 75 4 83 13 60 5 -11 4 -25 -2
-33 -7 -9 -6 -11 4 -7 20 8 40 43 46 79 3 17 7 33 10 36 3 3 4 -7 1 -22 -3
-17 0 -29 9 -32 10 -4 12 1 8 22 -6 27 -6 26 8 -3 l14 -30 8 25 c5 14 8 28 7
32 -1 4 5 5 14 1 10 -4 14 -13 9 -27 -3 -11 -7 -26 -9 -33 -1 -7 -6 -16 -10
-20 -5 -4 -6 6 -3 22 l6 30 -13 -30 c-12 -25 -14 -27 -19 -10 -4 18 -5 18 -6
2 0 -10 -6 -15 -11 -12 -6 4 -8 11 -5 16 4 5 1 9 -5 9 -6 0 -10 -8 -8 -17 2
-11 -2 -17 -11 -15 -8 2 -11 -3 -8 -12 4 -9 1 -18 -5 -22 -7 -5 -8 -2 -3 7 8
12 6 12 -8 0 -19 -15 -22 -37 -8 -45 5 -4 7 4 5 16 -3 18 -1 16 11 -7 l16 -30
-6 29 c-5 25 -4 28 8 17 8 -6 13 -21 10 -31 -4 -14 0 -20 11 -20 9 0 16 5 16
11 0 5 -4 7 -10 4 -11 -7 -14 8 -3 19 4 3 13 -4 20 -16 11 -21 12 -21 13 -4 0
20 0 20 15 0 8 -10 14 -13 13 -5 -2 7 7 15 20 17 17 3 21 0 16 -8 -5 -9 -2 -9
9 1 9 7 17 23 16 35 -1 19 -2 18 -9 -4 -5 -17 -8 -19 -9 -7 -1 9 -8 17 -17 17
-8 0 -12 5 -9 10 10 16 -1 11 -16 -7 -12 -14 -12 -16 0 -9 9 6 12 5 9 -5 -3
-8 -13 -14 -24 -14 -20 -1 -64 33 -64 49 0 5 3 6 7 3 3 -4 13 -1 21 6 13 10
15 9 9 -5 -7 -19 15 -21 43 -3 21 13 39 15 46 4 8 -14 25 -11 22 4 -2 6 2 12
7 12 6 0 9 -4 7 -9 -2 -5 4 -4 12 4 9 7 16 9 16 4 0 -5 5 -2 10 6 5 8 9 22 9
30 0 10 -3 8 -9 -5 -7 -17 -9 -17 -9 -2 -1 9 -8 17 -16 17 -7 0 -19 8 -24 18
-9 15 -10 15 -11 -6 0 -12 3 -21 8 -21 21 4 32 -3 32 -18 -1 -16 -2 -16 -10
-2 -11 19 -58 19 -69 0 -6 -9 -11 -10 -15 -2 -4 6 -1 14 8 17 8 3 13 14 11 25
-2 11 0 17 6 14 5 -4 7 -10 4 -15 -3 -5 -1 -11 5 -15 5 -3 10 3 10 14 0 18
-15 35 -32 36 -3 0 -9 3 -13 7 -12 12 23 2 39 -11 10 -8 16 -9 16 -3 0 6 -4
14 -10 17 -5 3 -10 11 -10 18 0 6 7 2 15 -9 14 -18 15 -18 11 10 -3 16 -2 25
2 21 4 -3 8 -11 8 -16 1 -5 2 -13 3 -18 1 -10 26 -9 37 1 3 4 13 4 22 0 15 -5
15 -4 3 11 -10 13 -17 14 -26 7 -9 -8 -15 -8 -20 0 -4 6 -3 10 2 9 4 -1 10 0
13 1 3 1 24 3 48 4 36 1 42 -1 42 -19 0 -15 -2 -17 -9 -6 -7 11 -10 9 -16 -9
-6 -18 -9 -20 -16 -9 -7 12 -9 12 -9 0 0 -11 -3 -11 -17 0 -9 8 -14 9 -10 3 4
-8 -3 -11 -23 -9 -17 1 -30 -1 -30 -6 0 -5 5 -9 11 -9 5 0 7 -6 3 -12 -4 -7 1
-6 12 3 19 15 70 19 90 7 11 -7 15 5 16 59 1 18 4 31 6 28 3 -3 11 3 18 13 10
14 10 20 -4 35 -12 14 -13 20 -3 30 10 9 11 9 6 -4 -5 -13 0 -16 24 -13 24 3
31 0 31 -14 0 -20 -20 -54 -20 -34 0 6 -5 12 -12 12 -9 0 -9 -3 0 -12 7 -7 12
-17 12 -22 0 -6 -7 -2 -15 8 -8 11 -15 15 -15 9 0 -13 18 -26 37 -29 6 -1 9 4
7 11 -6 15 13 15 36 0 22 -14 41 -15 33 -2 -8 13 -9 16 -12 57 -2 23 -3 24
-11 5 -8 -22 -40 -53 -39 -39 0 5 4 18 9 29 6 14 9 15 10 5 1 -11 3 -10 9 3 9
25 25 23 31 -3 6 -25 24 -28 28 -4 3 11 0 14 -10 9 -7 -5 -10 -5 -6 0 4 4 2
15 -5 24 -11 14 -10 14 6 2 20 -15 23 -2 5 18 -10 11 -10 13 0 7 7 -5 12 -1
13 11 0 16 1 16 8 -1 8 -22 20 -10 16 15 -2 9 3 16 10 16 14 0 14 -14 2 -34
-6 -9 2 -11 28 -9 27 2 39 -2 46 -16 7 -14 6 -18 -6 -18 -9 0 -14 4 -11 8 2 4
-5 9 -17 9 -18 2 -19 0 -7 -8 12 -9 12 -10 -3 -5 -12 4 -16 2 -11 -6 4 -7 3
-8 -5 -4 -6 4 -9 12 -6 17 4 5 1 9 -5 9 -7 0 -10 -7 -6 -17 6 -17 5 -17 -7 -1
-13 16 -14 14 -14 -15 -1 -22 1 -26 6 -14 8 22 21 24 32 5 7 -10 9 -10 9 0 0
6 4 12 9 12 5 0 8 -8 7 -17 -3 -19 -27 -25 -37 -10 -3 5 -9 1 -12 -8 -4 -9 -3
-14 2 -11 12 8 33 -19 23 -29 -4 -5 -1 -5 6 -1 7 4 10 11 7 16 -3 4 2 13 10
20 8 7 12 16 9 21 -8 14 38 28 58 18 18 -10 36 5 19 15 -5 3 -7 15 -4 25 3 10
-1 22 -7 26 -9 5 -10 1 -6 -16 7 -24 7 -24 -8 1 -9 14 -15 20 -16 15 0 -6 7
-21 16 -33 8 -12 11 -22 6 -22 -5 0 -17 11 -25 24 -9 13 -24 23 -33 22 -11 0
-18 8 -20 24 -1 14 0 19 2 12 3 -6 11 -9 17 -5 7 4 6 -1 -2 -10 -8 -10 -9 -17
-3 -17 6 0 13 4 17 9 3 6 15 8 26 6 14 -3 19 0 16 9 -3 7 1 13 8 13 8 0 11 -7
7 -15 -3 -9 -1 -13 5 -9 6 4 17 -1 24 -10 11 -14 11 -15 1 -9 -10 6 -13 2 -10
-13 1 -12 8 -22 13 -23 13 -2 23 52 14 77 -4 11 -16 49 -27 85 -30 99 -133
422 -143 445 -13 34 -60 178 -70 220 -6 22 -14 44 -20 49 -5 6 -9 20 -9 33 0
13 -4 31 -9 41 -5 9 -17 46 -26 82 -10 36 -21 74 -25 85 -15 37 -75 230 -75
240 0 6 -6 16 -12 23 -7 7 -13 26 -13 42 0 16 -4 31 -9 34 -5 3 -12 22 -16 42
-3 20 -13 47 -22 60 -8 13 -14 27 -14 31 2 18 -11 43 -22 43 -7 0 -6 4 3 10 8
5 10 10 3 10 -6 0 -10 8 -9 17 2 9 -3 28 -11 42 -7 15 -13 34 -13 44 0 9 -6
17 -12 17 -9 0 -8 4 2 10 12 8 12 10 -5 10 -17 0 -17 2 -5 10 11 7 11 10 2 10
-7 0 -11 4 -8 9 4 5 0 12 -6 14 -10 4 -10 6 -1 6 7 1 10 7 7 15 -3 8 -1 17 5
20 6 4 13 -9 17 -31 4 -21 14 -48 22 -61 9 -14 12 -34 9 -55 -3 -17 -3 -26 0
-19 9 23 21 12 28 -28 4 -22 11 -42 16 -46 5 -3 9 -14 9 -24 0 -11 6 -34 14
-52 7 -18 21 -58 31 -88 9 -30 23 -69 31 -87 8 -17 14 -37 14 -45 0 -8 3 -18
7 -22 4 -4 13 -26 19 -49 6 -23 38 -114 69 -202 32 -88 105 -302 162 -475 58
-173 109 -324 113 -335 5 -11 18 -47 29 -80 11 -33 32 -94 46 -135 14 -41 32
-97 41 -125 9 -27 20 -59 24 -70 5 -11 22 -63 39 -115 17 -52 54 -162 82 -245
27 -82 54 -163 59 -180 11 -39 31 -96 40 -115 4 -9 11 -31 15 -50 4 -19 10
-39 14 -45 4 -5 15 -37 25 -70 10 -33 24 -75 32 -93 l14 -33 28 19 c15 11 97
61 182 112 85 51 157 95 160 99 3 3 17 12 33 20 15 8 27 18 27 23 0 4 7 8 15
8 8 0 15 5 15 10 0 6 6 10 13 10 7 0 37 17 67 37 30 20 48 29 40 19 -8 -10
-80 -61 -160 -114 -80 -53 -147 -99 -150 -102 -3 -3 -12 -9 -21 -15 -9 -5 -69
-45 -133 -89 -111 -75 -131 -97 -107 -121 5 -6 11 -23 14 -40 2 -16 7 -38 12
-48 4 -9 5 -33 3 -52 -2 -19 -2 -32 1 -30 10 11 31 -19 31 -44 0 -15 4 -31 10
-37 5 -5 11 -23 13 -40 2 -17 11 -41 20 -54 9 -14 17 -34 17 -45 0 -11 7 -29
15 -39 8 -11 15 -30 15 -42 0 -13 4 -25 9 -28 7 -5 21 -54 25 -88 1 -3 4 -10
9 -14 4 -4 7 -16 7 -26 0 -11 6 -31 14 -46 8 -15 15 -40 17 -57 2 -16 7 -35
12 -42 5 -7 6 -17 2 -23 -3 -5 -1 -10 5 -10 6 0 9 -4 5 -9 -3 -5 1 -16 9 -24
8 -8 16 -27 19 -43 4 -31 21 -78 38 -108 6 -10 12 -27 14 -38 3 -11 17 -53 34
-93 16 -40 37 -105 47 -144 9 -39 21 -74 25 -77 5 -3 9 -16 9 -30 0 -14 7 -39
16 -55 19 -37 25 -60 31 -115 5 -39 4 -41 -23 -40 -15 1 -29 7 -32 15 -3 9 0
11 8 6 9 -5 11 -4 6 4 -6 8 -12 9 -20 2 -9 -7 -16 -7 -25 2 -10 9 -11 9 -6 -4
5 -13 86 -65 89 -57 1 2 7 14 15 27 7 14 17 63 22 110 4 47 15 147 24 221 9
74 20 179 25 232 5 54 13 131 19 170 26 187 59 446 71 563 12 121 27 237 39
310 14 86 31 225 41 336 5 53 13 123 19 155 9 46 9 61 -1 69 -15 12 -28 33
-59 93 -13 23 -26 42 -31 42 -4 0 -8 4 -8 10 0 12 -59 109 -77 128 -7 7 -13
20 -13 28 0 8 -4 14 -10 14 -5 0 -10 9 -10 19 0 10 -7 21 -15 25 -8 3 -15 10
-15 16 0 6 -10 26 -23 43 -31 45 -46 69 -57 95 -5 12 -14 22 -20 22 -5 0 -10
5 -10 10 0 6 -17 37 -37 68 -52 79 -61 94 -72 120 -6 12 -15 22 -21 22 -5 0
-10 4 -10 10 0 8 -97 168 -162 268 -10 15 -21 34 -25 42 -3 8 -16 29 -28 45
-12 17 -25 37 -29 45 -12 27 -85 140 -97 150 -3 3 -9 12 -12 20 -4 8 -16 29
-27 45 -11 17 -23 37 -27 45 -3 8 -9 17 -13 20 -5 4 -40 59 -143 224 -7 11
-24 38 -39 59 -16 22 -28 46 -28 53 0 7 -4 14 -8 16 -4 2 -37 50 -72 108 -35
58 -67 107 -70 110 -7 7 -29 42 -37 60 -4 8 -9 17 -13 20 -3 3 -27 39 -52 81
-25 42 -60 96 -77 119 -17 24 -31 49 -31 57 0 7 -4 13 -9 13 -5 0 -11 8 -15
18 -3 9 -15 31 -26 47 -11 17 -23 37 -27 45 -3 8 -9 17 -12 20 -7 5 -63 89
-71 105 -3 6 -21 35 -41 65 -20 30 -39 62 -42 70 -4 8 -15 27 -25 41 -50 77
-112 181 -112 189 0 4 -3 10 -7 12 -14 6 -87 118 -99 151 -3 9 -10 17 -14 17
-5 0 -12 9 -15 20 -3 11 -15 25 -27 31 -17 9 -19 8 -14 -8z m88 -272 c11 -25
21 -62 23 -81 2 -19 8 -36 14 -38 6 -2 11 -15 11 -29 0 -24 -13 -25 -16 -2 -1
5 -2 13 -3 18 0 6 -10 8 -20 6 -14 -3 -18 1 -14 12 5 12 7 12 14 1 6 -9 9 -9
9 -1 0 20 -17 24 -30 8 -10 -12 -10 -21 -2 -40 9 -19 9 -24 -1 -22 -6 1 -11
-4 -9 -11 1 -8 -2 -11 -7 -8 -5 3 -8 17 -6 31 1 14 -2 25 -6 25 -14 0 -11 54
4 69 10 11 9 12 -2 6 -11 -6 -13 -4 -8 10 4 9 3 23 -3 30 -8 9 -8 15 0 20 6 3
8 11 4 16 -9 15 4 41 17 34 6 -4 20 -28 31 -54z m69 -244 c-10 -9 -11 -8 -5 6
3 10 9 15 12 12 3 -3 0 -11 -7 -18z m34 -76 c-3 -5 2 -17 11 -25 21 -21 33
-103 14 -91 -10 6 -12 4 -6 -10 5 -15 4 -16 -9 -5 -12 10 -15 10 -15 -1 0 -11
-2 -11 -10 1 -5 8 -10 11 -10 6 0 -5 -7 -3 -15 4 -12 10 -15 10 -15 -1 0 -11
-2 -11 -10 1 -5 8 -9 24 -9 35 1 16 2 16 9 -5 7 -22 8 -22 10 -5 1 11 2 24 1
28 -1 5 4 5 10 1 9 -5 10 -2 6 10 -4 9 -3 14 2 11 5 -3 13 0 17 7 11 18 12 48
2 54 -4 3 -5 10 -2 16 4 7 10 5 16 -6 5 -9 7 -20 3 -25z m-82 -33 c-11 -16
-10 -68 2 -88 7 -13 6 -13 -7 -2 -12 10 -18 9 -28 -3 -17 -20 -27 -11 -24 22
1 15 3 29 4 31 1 1 3 5 4 10 3 16 18 32 26 27 5 -3 11 -1 15 5 3 5 9 10 12 10
3 0 1 -6 -4 -12z m18 -21 c-10 -9 -11 -8 -5 6 3 10 9 15 12 12 3 -3 0 -11 -7
-18z m-48 -124 c-7 -2 -13 -9 -13 -14 0 -6 5 -7 12 -3 7 5 8 3 3 -5 -5 -9 -11
-9 -17 -3 -12 12 -2 32 15 31 9 0 9 -2 0 -6z m67 -19 c0 -8 -19 -13 -24 -6 -3
5 1 9 9 9 8 0 15 -2 15 -3z m66 -79 c-1 -8 -5 -17 -8 -21 -5 -4 -4 16 1 34 3
9 9 -1 7 -13z m14 -87 c10 -21 10 -21 -3 -6 -8 10 -18 14 -22 10 -5 -4 -5 -1
-1 6 10 17 14 15 26 -10z m27 7 c0 -8 -4 -12 -9 -9 -5 3 -6 10 -3 15 9 13 12
11 12 -6z m-162 -57 c5 4 5 2 1 -5 -3 -6 -2 -14 4 -18 5 -3 10 0 10 7 0 8 5 6
11 -5 6 -10 8 -21 5 -24 -3 -4 -6 -1 -6 6 0 7 -5 9 -10 6 -6 -4 -7 -12 -3 -18
4 -7 0 -6 -10 2 -15 12 -21 9 -19 -10 1 -3 -6 -6 -13 -6 -10 0 -12 4 -5 12 5
7 6 15 2 19 -4 4 -2 6 3 4 6 -1 11 2 12 7 0 6 -2 9 -6 8 -4 -1 -8 5 -8 12 0
10 4 12 12 5 7 -5 16 -6 20 -2z m6 -1391 c-6 -8 -9 -17 -6 -21 3 -3 -1 -1 -7
4 -10 9 -10 13 2 20 21 13 24 12 11 -3z m73 -5 c3 -5 -1 -9 -9 -9 -8 0 -12 4
-9 9 3 4 7 8 9 8 2 0 6 -4 9 -8z m-76 -83 c-3 -8 -7 -3 -11 10 -4 17 -3 21 5
13 5 -5 8 -16 6 -23z m325 -44 c4 -8 3 -16 -1 -19 -4 -3 -9 4 -9 15 -2 23 3
25 10 4z m-330 -22 c-4 -10 -2 -14 4 -10 13 8 11 -19 -2 -30 -4 -4 -5 -3 -2 4
4 6 2 13 -5 15 -11 4 -5 38 6 38 3 0 2 -7 -1 -17z m264 2 c0 -8 -4 -12 -9 -9
-5 3 -6 10 -3 15 9 13 12 11 12 -6z m101 -10 c-3 -3 -9 2 -12 12 -6 14 -5 15
5 6 7 -7 10 -15 7 -18z m27 16 c3 -5 2 -12 -3 -15 -5 -3 -9 1 -9 9 0 17 3 19
12 6z m46 -44 c-10 -9 -11 -8 -5 6 3 10 9 15 12 12 3 -3 0 -11 -7 -18z m-152
-58 c-5 -10 -12 -19 -15 -19 -2 0 0 9 6 19 7 13 7 22 0 26 -5 3 -10 -2 -10
-11 0 -10 -3 -15 -6 -11 -4 3 -4 14 0 23 5 13 9 14 21 4 11 -9 12 -17 4 -31z
m35 22 c3 -5 -2 -15 -12 -22 -15 -12 -16 -12 -5 2 7 9 10 19 6 22 -3 4 -4 7 0
7 3 0 8 -4 11 -9z m-137 -25 c2 -20 1 -20 -9 -2 -11 19 -11 19 -24 1 -8 -10
-14 -14 -14 -9 0 31 45 41 47 10z m173 20 c0 -3 -4 -8 -10 -11 -5 -3 -10 -1
-10 4 0 6 5 11 10 11 6 0 10 -2 10 -4z m-340 -12 c0 -8 -19 -13 -24 -6 -3 5 1
9 9 9 8 0 15 -2 15 -3z m446 -20 c2 -12 -1 -13 -12 -3 -7 6 -11 16 -8 21 7 11
17 3 20 -18z m-435 -147 c-10 -9 -11 -8 -5 6 3 10 9 15 12 12 3 -3 0 -11 -7
-18z m166 -8 c-1 -12 -5 -15 -13 -9 -6 6 -14 7 -18 3 -4 -4 -4 0 -1 8 8 22 34
20 32 -2z m-47 -3 c0 -2 -6 -9 -14 -15 -11 -9 -16 -9 -22 0 -4 7 -3 9 4 5 6
-3 13 -2 17 4 6 10 15 14 15 6z m-79 -53 c13 -16 12 -17 -3 -4 -17 13 -22 21
-14 21 2 0 10 -8 17 -17z m1179 -719 c0 -8 -19 -13 -24 -6 -3 5 1 9 9 9 8 0
15 -2 15 -3z m-30 -20 c0 -8 -19 -13 -24 -6 -3 5 1 9 9 9 8 0 15 -2 15 -3z"/>
<path d="M14140 12111 c0 -6 4 -13 10 -16 6 -3 7 1 4 9 -7 18 -14 21 -14 7z"/>
<path d="M14163 12053 c-7 -2 -13 -9 -13 -14 0 -6 5 -7 12 -3 8 5 9 2 5 -10
-5 -11 -3 -15 4 -10 7 4 10 1 7 -7 -3 -8 -10 -14 -16 -14 -7 0 -12 -4 -11 -10
1 -17 5 -16 23 4 14 15 15 24 7 39 -6 11 -7 22 -4 26 7 7 4 7 -14 -1z"/>
<path d="M14260 11690 c-12 -17 -19 -37 -17 -45 9 -22 40 -10 48 19 5 19 4 26
-4 23 -7 -2 -11 -15 -10 -28 2 -22 2 -22 -6 -4 -9 22 7 57 23 48 5 -3 6 -1 2
5 -10 17 -12 16 -36 -18z m-3 -42 c-3 -8 -6 -5 -6 6 -1 11 2 17 5 13 3 -3 4
-12 1 -19z"/>
<path d="M14169 11707 c-3 -14 -7 -27 -9 -29 -1 -2 -3 -15 -4 -31 -3 -26 -2
-27 16 -11 10 10 17 27 15 40 -3 23 -16 44 -18 31z m2 -60 c-10 -9 -11 -8 -5
6 3 10 9 15 12 12 3 -3 0 -11 -7 -18z"/>
<path d="M9206 12315 c-85 -30 -126 -57 -202 -132 -71 -73 -124 -170 -158
-295 -30 -108 -17 -350 23 -443 94 -213 121 -239 141 -137 16 75 38 136 73
197 80 143 121 184 344 344 59 43 103 82 103 92 0 5 -21 31 -47 60 -27 28 -56
63 -65 78 -24 35 -64 133 -83 204 -19 67 -25 69 -129 32z"/>
<path d="M17963 12201 c3 -11 -1 -28 -8 -38 -7 -10 -15 -47 -18 -82 -3 -35
-10 -68 -16 -74 -6 -6 -11 -27 -11 -47 0 -20 -5 -41 -10 -46 -18 -18 -1 -42
69 -100 48 -40 67 -51 69 -39 2 8 8 12 14 9 7 -4 8 -2 4 4 -4 7 -2 12 4 12 6
0 10 8 8 18 -2 9 2 16 8 15 6 -1 11 5 11 13 0 8 -3 12 -5 9 -3 -3 -12 1 -20 8
-13 10 -14 9 -7 -3 4 -8 5 -12 0 -8 -4 4 -15 2 -23 -5 -11 -9 -11 -5 2 15 11
16 23 25 30 21 22 -14 34 -11 31 8 -6 29 -15 40 -28 32 -7 -3 -3 3 7 15 19 22
32 30 21 13 -10 -17 13 -21 29 -5 9 8 16 11 16 5 0 -14 -35 -32 -45 -23 -5 4
-5 1 -1 -6 4 -7 12 -10 17 -6 5 3 18 0 27 -7 15 -11 15 -11 4 1 -10 12 -9 18
10 33 13 10 17 16 11 12 -8 -4 -13 0 -13 10 0 12 4 14 19 6 10 -6 21 -7 25 -4
3 3 6 1 6 -6 0 -7 5 -9 10 -6 6 4 0 15 -15 27 -14 11 -24 22 -21 25 6 6 91
-50 129 -85 15 -14 27 -22 27 -18 0 14 -165 161 -294 261 -21 17 -45 36 -52
43 -18 18 -27 15 -21 -7z m113 -296 c8 -3 12 -9 9 -15 -4 -6 -12 -7 -18 -3 -7
4 -16 8 -21 8 -5 0 -11 6 -14 13 -2 7 2 10 12 7 9 -3 23 -7 32 -10z m-18 -69
c-10 -7 -18 -18 -18 -25 0 -15 -17 -14 -26 2 -4 6 -4 9 0 5 4 -3 16 2 27 13
10 10 22 19 27 19 4 0 -1 -7 -10 -14z"/>
<path d="M13840 11995 c0 -8 2 -15 4 -15 2 0 6 7 10 15 3 8 1 15 -4 15 -6 0
-10 -7 -10 -15z"/>
<path d="M13822 11960 c0 -14 2 -19 5 -12 2 6 2 18 0 25 -3 6 -5 1 -5 -13z"/>
<path d="M13790 11920 c0 -5 5 -10 11 -10 5 0 7 5 4 10 -3 6 -8 10 -11 10 -2
0 -4 -4 -4 -10z"/>
<path d="M13760 11875 c0 -8 5 -15 10 -15 6 0 10 7 10 15 0 8 -4 15 -10 15 -5
0 -10 -7 -10 -15z"/>
<path d="M18370 11860 c0 -5 5 -10 10 -10 6 0 10 5 10 10 0 6 -4 10 -10 10 -5
0 -10 -4 -10 -10z"/>
<path d="M13730 11831 c0 -10 -7 -21 -15 -25 -8 -3 -15 -15 -15 -26 0 -11 -7
-20 -15 -20 -8 0 -15 -7 -15 -16 0 -8 -7 -22 -16 -31 -8 -9 -13 -22 -10 -29 3
-8 0 -11 -10 -7 -8 3 -14 -1 -14 -10 0 -8 -7 -20 -15 -27 -8 -7 -15 -19 -15
-27 0 -8 -6 -21 -12 -28 -30 -33 -38 -45 -38 -54 0 -5 -6 -16 -12 -23 -19 -20
-38 -50 -44 -70 -4 -10 -10 -18 -15 -18 -5 0 -14 -10 -19 -22 -11 -26 -32 -60
-41 -68 -3 -3 -14 -21 -25 -40 -10 -19 -23 -38 -27 -41 -11 -8 -34 -47 -43
-71 -3 -10 -10 -18 -15 -18 -5 0 -9 -5 -9 -11 0 -6 -13 -28 -30 -49 -16 -21
-30 -41 -30 -44 0 -4 -28 -50 -63 -104 -35 -53 -74 -115 -87 -137 -13 -22 -27
-42 -30 -45 -4 -3 -10 -12 -13 -20 -4 -8 -16 -28 -27 -45 -11 -16 -23 -37 -27
-45 -3 -8 -9 -17 -12 -20 -7 -6 -63 -89 -71 -105 -3 -5 -27 -44 -55 -85 -68
-102 -74 -112 -81 -132 -3 -10 -9 -18 -13 -18 -4 0 -15 -17 -26 -37 -20 -38
-98 -160 -113 -178 -4 -5 -11 -17 -15 -25 -4 -8 -16 -28 -27 -45 -11 -16 -23
-37 -26 -45 -4 -8 -17 -28 -29 -45 -12 -16 -43 -66 -70 -110 -27 -44 -52 -82
-55 -85 -4 -3 -10 -12 -14 -20 -9 -20 -22 -40 -81 -130 -27 -41 -58 -91 -68
-110 -11 -19 -29 -48 -41 -65 -11 -16 -27 -39 -33 -50 -77 -126 -198 -321
-203 -325 -3 -3 -28 -41 -55 -85 -27 -44 -52 -82 -55 -85 -4 -3 -10 -12 -13
-20 -4 -8 -16 -28 -27 -45 -11 -16 -23 -38 -26 -47 -4 -10 -10 -18 -15 -18 -5
0 -9 -4 -9 -9 0 -7 -75 -129 -97 -156 -22 -28 -88 -132 -99 -155 -4 -8 -17
-28 -29 -45 -12 -16 -43 -66 -70 -110 -27 -44 -52 -82 -55 -85 -4 -3 -10 -12
-13 -20 -4 -8 -16 -28 -27 -45 -11 -16 -23 -37 -27 -45 -3 -8 -16 -28 -27 -45
-12 -16 -25 -37 -31 -46 -34 -58 -90 -145 -95 -149 -4 -3 -10 -12 -14 -20 -9
-20 -26 -49 -51 -85 -11 -17 -25 -39 -32 -50 -30 -51 -93 -150 -162 -255 -42
-63 -80 -123 -86 -132 -5 -10 -41 -66 -78 -125 -37 -59 -73 -117 -80 -128 -7
-11 -21 -33 -32 -50 -11 -16 -24 -37 -30 -47 -10 -18 -106 -169 -137 -217 -10
-14 -21 -33 -25 -41 -3 -8 -9 -17 -12 -20 -8 -6 -63 -90 -74 -110 -4 -8 -16
-28 -27 -45 -11 -16 -23 -38 -26 -47 -4 -10 -10 -18 -14 -18 -4 0 -10 -8 -14
-17 -3 -10 -32 -58 -65 -108 -34 -49 -65 -99 -71 -110 -6 -11 -18 -32 -28 -46
-22 -35 -200 -319 -229 -367 -13 -20 -23 -43 -23 -50 0 -11 402 -215 705 -357
39 -18 183 -88 320 -155 138 -67 286 -139 330 -160 81 -38 291 -140 690 -335
121 -59 265 -129 320 -155 131 -63 386 -186 610 -295 99 -48 270 -131 380
-185 110 -53 337 -165 505 -247 168 -83 313 -153 323 -156 19 -7 43 26 103
138 55 105 69 130 74 135 3 3 15 25 28 50 20 40 54 101 133 245 12 22 35 65
51 95 16 30 42 78 58 105 17 28 41 73 56 100 54 106 73 140 81 150 4 6 21 35
37 65 84 161 98 186 107 194 5 6 9 18 9 28 0 10 5 18 10 18 6 0 10 6 10 14 0
8 6 21 13 28 7 7 34 56 61 108 26 52 63 122 81 155 79 142 81 149 38 150 -23
1 -30 -2 -23 -10 10 -12 4 -25 -12 -25 -5 0 -7 4 -3 9 3 5 1 13 -5 16 -6 4 -9
1 -8 -7 2 -8 -7 -13 -22 -13 -14 0 -30 -4 -37 -8 -6 -4 -14 -3 -18 3 -4 6 -10
8 -15 5 -5 -3 -13 3 -19 12 -10 17 -10 17 -11 -2 0 -17 -2 -18 -11 -5 -9 12
-10 11 -4 -5 12 -36 13 -50 1 -65 -10 -13 -9 -13 8 0 18 14 19 13 13 -3 -4
-10 -7 -20 -7 -23 0 -2 -8 0 -17 3 -15 6 -16 4 -5 -9 11 -13 11 -18 0 -24 -7
-4 -10 -4 -6 1 10 11 -12 36 -24 29 -6 -4 -5 2 1 14 6 11 11 30 11 42 0 12 4
18 10 15 6 -3 7 1 3 10 -5 13 -7 14 -14 3 -7 -10 -9 -10 -9 2 0 9 -3 11 -8 5
-6 -9 -38 -11 -67 -5 -5 1 -34 2 -64 0 -36 -1 -51 2 -47 9 4 6 1 9 -6 6 -8 -3
-15 -20 -16 -37 -2 -18 -5 -34 -9 -37 -3 -4 -4 9 -1 27 3 19 0 32 -6 32 -7 0
-10 -19 -9 -47 1 -28 -1 -42 -6 -34 -7 11 -9 11 -14 0 -3 -9 -6 -10 -6 -2 -1
6 4 15 9 18 16 10 12 25 -5 19 -11 -5 -13 -2 -8 12 6 16 5 16 -14 -2 -11 -10
-18 -23 -15 -28 3 -5 -1 -6 -8 -1 -7 4 -16 2 -21 -6 -7 -12 -9 -12 -9 0 0 13
39 49 69 63 12 6 11 7 -5 5 -11 -1 -28 4 -37 11 -10 9 -17 10 -22 2 -4 -6 -1
-9 5 -8 15 4 22 -29 9 -38 -5 -3 -9 3 -9 12 0 16 -1 16 -15 -2 -14 -19 -14
-19 -10 2 3 18 -1 21 -24 20 -15 0 -28 -6 -28 -13 0 -7 4 -10 9 -7 4 3 8 -2 8
-10 0 -8 -5 -18 -10 -21 -6 -4 -8 -11 -5 -16 7 -11 28 -12 22 -1 -3 4 -1 16 4
27 7 18 8 18 8 2 1 -10 6 -15 11 -12 6 3 10 -1 10 -9 0 -9 -3 -15 -7 -14 -13
4 -53 -22 -53 -34 0 -6 7 -5 17 3 16 13 16 13 0 -10 -9 -14 -26 -25 -37 -26
-11 -1 -18 1 -15 3 7 7 -15 32 -27 32 -6 0 -4 -8 3 -17 11 -15 11 -16 -1 -5
-17 15 -40 16 -40 1 0 -5 4 -8 9 -5 5 3 15 -2 22 -12 12 -15 12 -16 -1 -6 -8
6 -25 10 -38 9 -14 -1 -27 6 -33 17 -7 13 -7 18 2 16 7 -2 15 5 17 15 2 11 -3
17 -14 17 -10 0 -14 3 -10 7 4 5 13 8 18 8 6 0 13 7 15 15 4 12 3 13 -5 1 -8
-11 -12 -10 -21 8 -8 14 -8 21 -1 22 5 1 16 2 23 3 6 1 17 -5 22 -12 9 -11 11
-9 11 6 0 16 -7 20 -38 18 -42 -1 -56 15 -31 36 15 11 16 11 9 -7 -6 -16 -5
-18 5 -7 11 10 10 16 -5 30 -14 13 -17 14 -14 2 2 -8 -3 -14 -10 -12 -8 1 -11
-2 -8 -7 4 -5 2 -12 -4 -16 -5 -3 -10 -12 -10 -18 0 -7 4 -6 10 3 6 9 10 10
10 3 0 -19 -18 -25 -27 -9 -6 11 -13 12 -23 6 -13 -8 -12 -10 3 -10 10 0 15
-5 12 -10 -4 -6 -11 -7 -17 -4 -7 5 -8 2 -3 -7 5 -8 4 -10 0 -6 -14 12 -14 35
0 47 14 11 9 50 -6 50 -14 0 -11 78 3 82 8 3 7 6 -3 10 -9 3 -16 1 -17 -5 -7
-50 -21 -621 -22 -872 -1 -170 -5 -330 -9 -355 l-7 -45 -7 55 c-4 30 -7 132
-7 225 0 94 -4 233 -9 310 -5 77 -12 412 -15 745 -4 333 -9 715 -12 850 -3
135 -9 473 -13 752 -4 279 -10 510 -13 513 -4 4 -58 -18 -120 -48 -62 -30
-133 -64 -158 -75 -87 -39 -407 -191 -590 -280 -242 -118 -311 -149 -295 -134
6 5 136 74 290 152 355 181 564 290 745 390 47 26 93 49 103 53 19 7 24 37 5
37 -6 0 -102 60 -212 133 -381 254 -761 504 -816 537 -73 44 -160 110 -160
121 0 18 29 8 35 -11 3 -11 12 -20 20 -20 7 0 84 -48 171 -106 87 -58 165
-109 173 -112 9 -3 18 -9 21 -12 3 -4 23 -17 45 -29 56 -30 79 -44 87 -56 4
-5 8 -7 8 -3 0 8 13 1 127 -69 81 -49 234 -148 248 -161 6 -4 60 -37 120 -71
61 -35 117 -70 127 -78 9 -8 19 -10 22 -5 5 9 8 1757 2 1827 -2 22 -4 49 -5
59 -2 32 -14 9 -18 -36 -2 -24 -5 -58 -7 -76 -1 -18 -9 -38 -16 -45 -12 -10
-12 -9 -2 5 9 11 10 18 2 23 -5 3 -10 0 -10 -7 0 -10 -3 -9 -10 2 -5 8 -12 11
-16 8 -4 -4 -15 -3 -25 3 -15 7 -19 7 -17 -3 2 -7 -4 -12 -13 -10 -9 1 -21 -4
-27 -11 -12 -14 -5 -57 9 -57 5 0 9 -5 9 -11 0 -8 -4 -9 -13 0 -8 6 -16 8 -20
5 -3 -3 -3 5 0 18 4 19 3 20 -7 8 -9 -12 -10 -11 -5 6 4 18 1 21 -20 20 -28
-2 -48 -23 -38 -41 4 -5 -3 -2 -14 8 -11 9 -23 14 -27 10 -4 -5 -6 -1 -4 7 2
8 -4 15 -12 15 -9 0 -15 -9 -14 -22 0 -12 -3 -20 -8 -17 -4 3 -8 11 -8 19 0 8
-5 17 -11 21 -8 4 -9 -1 -5 -17 l7 -24 -14 23 c-7 12 -16 20 -20 16 -4 -4 -1
-14 6 -23 11 -14 10 -15 -7 -1 -18 14 -19 13 -13 -2 7 -20 -17 -45 -28 -28 -4
6 -1 9 6 8 13 -3 20 40 7 48 -4 3 -8 14 -8 25 0 11 -4 18 -10 14 -6 -4 -5 -16
1 -33 7 -20 7 -24 -1 -16 -6 6 -12 27 -14 48 -2 21 -7 40 -12 44 -4 4 -5 0 -2
-8 8 -22 -6 -53 -25 -56 -11 -1 -14 3 -9 14 5 15 3 15 -10 4 -13 -10 -18 -10
-24 -1 -4 7 -3 9 4 5 6 -3 14 -1 18 5 5 9 11 7 19 -5 11 -14 13 -13 13 10 0
18 -3 22 -9 13 -8 -13 -13 -5 -10 14 1 5 -3 6 -9 2 -6 -3 -7 -11 -4 -17 4 -6
1 -8 -7 -6 -8 3 -21 -1 -29 -8 -11 -9 -20 -10 -30 -3 -12 8 -11 9 5 7 11 -2
20 2 20 9 0 6 4 15 9 20 6 5 6 2 1 -7 -8 -13 -7 -13 8 -1 22 17 22 17 -8 17
-14 0 -25 -5 -25 -10 0 -6 -5 -4 -10 4 -9 14 -11 13 -14 -10 0 -5 -5 -10 -11
-10 -5 0 -11 5 -11 10 -1 6 -2 15 -3 21 0 5 -5 8 -10 5 -5 -4 -12 0 -14 6 -4
9 -6 9 -6 -1 -1 -11 -5 -10 -16 5 -11 14 -15 16 -15 4 0 -12 -3 -11 -11 3 -6
9 -12 25 -14 35 -2 9 -8 28 -14 42 -9 22 -10 21 -6 -13 3 -32 1 -36 -11 -26
-15 13 -19 23 -5 15 5 -3 8 10 6 29 -3 25 0 33 8 28 21 -13 35 -11 42 5 6 15
8 15 18 2 15 -18 37 -24 37 -9 0 5 5 7 10 4 17 -10 11 -24 -8 -20 -13 2 -18
-3 -18 -21 0 -17 3 -20 12 -13 8 7 14 7 19 -1 6 -9 -1 -14 -17 -11 -4 0 -5 -6
-1 -15 4 -11 8 -12 13 -4 5 9 9 9 14 1 6 -10 -6 -15 -26 -12 -5 0 -8 -4 -8
-10 0 -6 9 -9 20 -6 11 3 22 1 25 -3 3 -5 14 -8 25 -7 10 1 17 5 14 9 -3 4
-12 4 -21 1 -12 -5 -14 -3 -7 8 10 17 13 69 3 63 -8 -5 -25 35 -21 49 1 5 -2
6 -7 3 -5 -4 -12 -2 -16 4 -4 6 -10 8 -15 5 -12 -7 -33 32 -25 45 4 6 10 8 15
5 5 -3 11 -2 14 3 2 4 -6 8 -19 8 -19 0 -22 -4 -20 -28 3 -20 -2 -31 -16 -39
-12 -6 -23 -8 -27 -5 -3 3 0 6 7 6 9 0 9 5 1 20 -7 14 -7 20 0 20 5 0 10 -7
10 -15 0 -8 5 -15 10 -15 7 0 7 6 2 18 -5 9 -8 26 -5 37 2 11 5 31 6 45 2 14
6 31 11 38 11 19 15 62 4 56 -5 -3 -8 -11 -7 -17 3 -25 -2 -37 -13 -35 -8 2
-14 -9 -16 -27 -2 -16 -10 -44 -18 -62 -7 -17 -14 -37 -14 -45 0 -8 -5 -19
-11 -25 -5 -5 -11 -22 -13 -36 -1 -14 -7 -32 -13 -39 -5 -7 -18 -38 -28 -68
-19 -60 -41 -119 -60 -165 -7 -16 -21 -55 -30 -85 -9 -30 -23 -68 -30 -85 -7
-16 -21 -52 -30 -80 -10 -27 -22 -55 -27 -61 -4 -6 -9 -23 -10 -39 -2 -15 -8
-30 -15 -32 -7 -3 -13 -18 -13 -33 0 -16 -7 -35 -15 -44 -8 -8 -15 -28 -15
-44 0 -16 -7 -35 -15 -42 -8 -7 -15 -25 -15 -41 0 -15 -4 -31 -10 -34 -16 -10
-12 51 5 65 8 7 15 27 15 44 0 18 4 36 8 42 7 9 21 52 58 182 9 31 20 66 25
77 4 11 40 121 79 245 40 124 96 297 125 385 29 88 67 207 85 265 18 58 48
150 67 205 19 55 37 111 40 125 3 14 9 30 13 35 4 6 15 37 25 70 10 33 35 112
55 175 20 63 56 176 80 250 23 74 49 150 56 168 8 18 14 39 14 46 0 8 7 27 15
42 8 16 15 39 15 51 0 12 5 25 10 28 6 3 10 13 10 22 0 8 6 29 14 46 24 52 58
169 60 208 2 20 7 42 11 50 5 8 5 11 0 7 -4 -4 -15 -2 -24 5 -14 11 -14 10 -2
-6 12 -15 11 -17 -5 -14 -11 1 -24 6 -31 10 -6 4 -14 3 -18 -3 -6 -9 1 -14 17
-11 4 0 5 -6 1 -15 -4 -11 -8 -12 -13 -4 -4 6 -10 11 -14 11 -19 -3 -26 0 -26
10 0 5 5 7 10 4 6 -4 10 5 10 19 0 14 5 26 10 26 6 0 10 9 10 20 0 11 -4 20
-10 20 -5 0 -10 -9 -10 -19z m68 -106 c-2 -22 -4 -23 -17 -11 -7 8 -11 22 -7
31 9 23 26 9 24 -20z m-101 -20 c0 -8 -4 -12 -9 -9 -5 3 -6 10 -3 15 9 13 12
11 12 -6z m-34 -50 c-3 -9 -8 -14 -10 -11 -3 3 -2 9 2 15 9 16 15 13 8 -4z
m-336 -1710 c0 -8 -4 -15 -9 -15 -10 0 -11 14 -1 23 9 10 10 9 10 -8z m97
-116 c-2 -4 0 -9 6 -11 15 -5 21 -47 7 -54 -7 -4 -9 -4 -5 1 4 4 3 14 -3 22
-6 7 -8 13 -4 13 4 0 2 7 -5 15 -7 8 -17 12 -23 8 -5 -3 -7 -2 -4 4 3 5 13 10
21 10 8 0 13 -4 10 -8z m-137 -63 c-1 -6 4 -10 11 -8 17 3 15 -3 -5 -19 -10
-7 -15 -9 -10 -4 4 4 0 16 -8 25 -13 14 -13 17 -1 17 8 0 14 -5 13 -11z m616
-121 c-3 -9 -8 -14 -10 -11 -3 3 -2 9 2 15 9 16 15 13 8 -4z m-23 -3 c0 -13
-12 -22 -22 -16 -10 6 -1 24 13 24 5 0 9 -4 9 -8z m-430 -28 c0 -8 -19 -13
-24 -6 -3 5 1 9 9 9 8 0 15 -2 15 -3z m351 -7 c-5 -5 -7 -17 -4 -26 4 -9 3
-13 -1 -10 -14 13 -14 46 0 46 9 0 11 -4 5 -10z m-225 -23 c1 -9 0 -13 -4 -10
-3 4 -7 14 -8 22 -1 9 0 13 4 10 3 -4 7 -14 8 -22z m334 0 c0 -8 -19 -13 -24
-6 -3 5 1 9 9 9 8 0 15 -2 15 -3z m-386 -30 c3 -8 2 -12 -4 -9 -6 3 -10 10
-10 16 0 14 7 11 14 -7z m36 10 c0 -8 -19 -13 -24 -6 -3 5 1 9 9 9 8 0 15 -2
15 -3z m-643 -681 c-3 -10 -5 -2 -5 17 0 19 2 27 5 18 2 -10 2 -26 0 -35z
m-25 -70 c-3 -16 -7 -22 -10 -15 -4 13 4 42 11 42 2 0 2 -12 -1 -27z m-29 -88
c-3 -9 -8 -14 -10 -11 -3 3 -2 9 2 15 9 16 15 13 8 -4z m-806 -147 c-3 -8 -6
-5 -6 6 -1 11 2 17 5 13 3 -3 4 -12 1 -19z m34 -243 c1 -50 6 -93 12 -96 5 -4
13 -50 18 -103 4 -53 13 -113 18 -133 6 -21 11 -59 11 -85 0 -26 4 -69 10 -95
5 -26 15 -93 20 -148 6 -55 17 -154 25 -220 8 -66 19 -171 25 -234 5 -63 12
-121 15 -130 2 -9 9 -46 14 -83 9 -64 38 -136 81 -203 11 -16 22 -37 26 -45 3
-8 10 -25 16 -36 12 -25 8 -56 -8 -61 -5 -2 -20 16 -33 39 -12 24 -31 57 -41
73 -11 17 -23 37 -27 45 -12 24 -37 50 -49 50 -7 0 -43 -15 -80 -34 -38 -18
-98 -47 -134 -64 -36 -16 -145 -69 -243 -116 -98 -47 -180 -86 -182 -86 -2 0
-41 -18 -87 -40 -92 -44 -136 -54 -73 -16 22 13 43 22 46 20 4 -2 12 3 19 11
7 8 19 15 26 15 8 0 14 5 14 11 0 5 4 8 9 4 5 -3 12 -1 16 5 3 5 15 10 26 10
11 0 17 4 14 10 -4 6 1 7 11 3 12 -4 15 -3 10 5 -5 8 0 12 14 12 12 0 19 4 16
9 -3 4 6 13 20 20 15 6 23 7 19 1 -3 -5 -1 -10 4 -10 6 0 11 5 11 10 0 6 6 9
13 8 6 -2 11 2 10 9 -1 6 4 14 13 17 8 3 12 2 9 -4 -3 -5 7 -5 25 1 16 6 27
15 24 20 -3 5 3 6 12 2 10 -4 15 -2 11 4 -3 5 4 9 16 9 12 -1 22 4 22 11 0 6
4 15 9 20 6 5 6 2 1 -7 -5 -8 3 -3 17 12 14 14 51 41 82 58 31 18 56 36 56 41
0 5 6 8 13 6 6 -1 11 3 10 9 -1 8 6 10 19 6 14 -3 19 -1 14 6 -4 7 -1 12 9 12
12 0 15 6 10 23 -5 19 -4 20 5 4 16 -25 53 -4 45 26 -6 21 -5 21 8 -1 13 -22
14 -22 29 -5 16 18 21 56 7 47 -5 -2 -6 -11 -3 -18 7 -18 -12 -30 -22 -15 -5
8 -3 9 6 4 8 -5 11 -3 8 6 -3 8 -11 14 -19 15 -20 1 -40 -17 -32 -29 3 -5 1
-7 -5 -4 -7 5 -7 14 1 31 7 13 16 21 22 18 34 -22 36 -13 34 131 -1 78 -6 152
-10 164 -5 13 -11 67 -15 120 -7 119 -7 116 -19 125 -6 5 -6 8 2 8 7 0 10 10
8 23 -6 36 -14 125 -21 242 -3 61 -8 124 -10 140 -9 76 -15 146 -18 215 -2 41
-5 75 -6 75 -9 0 -23 162 -16 181 11 29 15 12 17 -81z m326 -1682 c-1 -10 -6
-24 -11 -32 -7 -11 -10 -11 -18 3 -6 11 -6 22 2 32 17 19 30 18 27 -3z m14
-86 c-16 -16 -26 20 -10 40 13 15 14 14 17 -7 2 -12 -1 -27 -7 -33z m35 -32
c-3 -8 -10 -15 -16 -15 -14 0 -12 37 3 43 15 5 21 -8 13 -28z m34 -24 c0 -17
-12 -41 -21 -41 -5 0 -9 11 -9 25 0 16 6 25 15 25 8 0 15 -4 15 -9z m-1171
-62 c-29 -16 -55 -26 -58 -23 -3 4 -1 8 4 11 6 2 28 14 50 27 22 12 44 21 49
18 4 -2 -16 -17 -45 -33z m1196 -8 c-3 -12 -11 -21 -16 -21 -10 0 -12 43 -2
53 12 13 25 -10 18 -32z m26 -33 c1 -7 1 -17 0 -21 -1 -4 6 -10 14 -13 8 -4
15 -12 15 -18 0 -7 6 -18 13 -24 17 -18 17 -61 -1 -54 -8 3 -12 14 -9 28 3 15
0 21 -9 17 -8 -3 -17 3 -20 13 -4 11 -14 27 -22 36 -8 10 -12 24 -9 33 8 18
27 20 28 3z m97 -191 c12 -13 13 -20 4 -29 -9 -9 -12 -7 -12 10 0 11 -7 25
-17 30 -11 7 -14 15 -8 28 8 18 8 18 13 -1 2 -11 11 -28 20 -38z m36 -72 c-4
-8 -10 -12 -15 -9 -14 8 -10 24 6 24 9 0 12 -6 9 -15z m26 -46 c0 -5 -4 -9
-10 -9 -5 0 -10 7 -10 16 0 8 5 12 10 9 6 -3 10 -10 10 -16z m33 -53 c4 -10 1
-13 -9 -9 -15 6 -19 23 -5 23 5 0 11 -7 14 -14z m22 -35 c3 -5 1 -12 -5 -16
-5 -3 -10 1 -10 9 0 18 6 21 15 7z m28 -45 c6 -16 -2 -28 -14 -20 -12 7 -11
34 0 34 5 0 11 -6 14 -14z m28 -59 c-1 -12 -15 -9 -19 4 -3 6 1 10 8 8 6 -3
11 -8 11 -12z m29 -60 c0 -5 -4 -5 -10 -2 -5 3 -10 14 -10 23 0 15 2 15 10 2
5 -8 10 -19 10 -23z m24 -33 c9 -24 7 -28 -9 -14 -17 14 -20 30 -6 30 5 0 12
-7 15 -16z m32 -56 c4 -13 10 -25 14 -28 11 -8 41 -73 35 -78 -2 -2 -10 7 -16
22 -7 14 -16 26 -21 26 -4 0 -8 6 -8 14 0 7 -7 19 -15 26 -17 14 -20 40 -6 40
5 0 13 -10 17 -22z m74 -139 c0 -6 -4 -7 -10 -4 -5 3 -10 11 -10 16 0 6 5 7
10 4 6 -3 10 -11 10 -16z m24 -45 c3 -8 2 -12 -4 -9 -6 3 -10 10 -10 16 0 14
7 11 14 -7z m56 -95 c0 -6 -4 -7 -10 -4 -5 3 -10 11 -10 16 0 6 5 7 10 4 6 -3
10 -11 10 -16z m1944 -44 c-3 -8 -15 -17 -26 -21 -15 -4 -17 -8 -8 -14 7 -4 9
-13 5 -19 -5 -8 -11 -9 -19 -2 -7 6 -16 8 -19 4 -4 -3 -7 2 -7 12 0 10 3 15 6
12 10 -10 65 33 58 45 -4 7 -2 8 4 4 6 -4 9 -13 6 -21z m-1920 -1 c3 -8 2 -12
-4 -9 -6 3 -10 10 -10 16 0 14 7 11 14 -7z m1626 -14 c3 -1 20 -2 38 -2 27 -1
32 -4 26 -17 -3 -9 -7 -22 -7 -28 0 -16 -27 4 -27 21 0 6 5 4 10 -4 8 -13 10
-13 10 2 0 10 -7 16 -19 15 -13 -1 -17 -6 -13 -17 5 -13 3 -13 -10 -2 -11 9
-18 10 -23 2 -3 -6 -11 -8 -16 -5 -5 4 -12 -1 -15 -10 -6 -13 -8 -14 -15 -3
-6 9 -9 9 -9 1 0 -7 8 -16 18 -21 18 -10 45 -5 38 7 -3 4 0 13 5 21 9 13 10
13 6 0 -2 -8 3 -24 12 -35 8 -11 9 -15 2 -8 -10 8 -20 9 -33 2 -10 -5 -18 -6
-18 -2 0 4 -5 1 -10 -7 -8 -13 -10 -12 -10 4 0 15 -3 16 -14 6 -13 -10 -14 -7
-10 14 3 20 1 24 -11 20 -8 -3 -12 -11 -8 -18 3 -6 3 -8 -2 -4 -4 4 -14 3 -22
-4 -11 -8 -12 -7 -7 5 3 9 14 19 25 22 10 4 19 11 19 16 0 6 -5 7 -12 3 -7 -4
-8 -3 -4 5 4 6 12 9 17 6 5 -4 9 -2 9 4 0 5 9 8 20 6 11 -2 20 0 20 5 0 7 20
7 40 0z m153 -6 c4 -1 9 -3 12 -4 7 -3 22 -7 35 -9 7 -1 6 -7 -2 -15 -8 -8
-15 -10 -19 -4 -3 5 -10 10 -15 11 -5 1 -8 7 -6 12 2 6 -2 4 -9 -2 -10 -10 -8
-17 9 -36 12 -13 20 -26 17 -29 -8 -8 -45 3 -45 13 0 5 8 6 18 2 15 -6 15 -4
-2 16 -23 26 -33 67 -14 54 7 -4 16 -8 21 -9z m-270 -9 c-3 -9 -8 -14 -10 -11
-3 3 -2 9 2 15 9 16 15 13 8 -4z m-390 -31 c-3 -8 -12 -13 -20 -10 -8 3 -19 6
-25 6 -6 0 -3 9 7 20 13 15 21 17 31 9 7 -6 10 -17 7 -25z m27 16 c8 -15 8
-20 -3 -20 -7 0 -13 9 -14 20 -1 11 0 20 2 20 2 0 9 -9 15 -20z m282 -45 c3
-13 1 -22 -3 -19 -9 5 -13 44 -5 44 2 0 6 -11 8 -25z m433 -5 c-5 -8 -11 -8
-17 -2 -6 6 -7 16 -3 22 5 8 11 8 17 2 6 -6 7 -16 3 -22z m-1808 -12 c-3 -8
-6 -5 -6 6 -1 11 2 17 5 13 3 -3 4 -12 1 -19z m1080 -3 c0 -8 -4 -12 -9 -9 -5
3 -6 10 -3 15 9 13 12 11 12 -6z m293 -25 c7 -13 7 -21 -2 -26 -7 -4 -10 -3
-5 1 4 5 0 19 -9 33 -9 13 -11 21 -5 18 6 -4 15 -16 21 -26z m37 10 c1 -11 -2
-22 -8 -25 -5 -4 -6 2 -2 11 5 13 3 15 -8 9 -12 -8 -12 -6 0 8 17 21 16 21 18
-3z m-63 -8 c3 -5 -1 -9 -9 -9 -8 0 -12 4 -9 9 3 4 7 8 9 8 2 0 6 -4 9 -8z
m387 -9 c13 -16 12 -17 -3 -4 -10 7 -18 15 -18 17 0 8 8 3 21 -13z"/>
<path d="M13781 11734 c0 -11 3 -14 6 -6 3 7 2 16 -1 19 -3 4 -6 -2 -5 -13z"/>
<path d="M14688 5414 c-5 -5 -28 -11 -50 -13 -5 -1 -8 -5 -8 -10 0 -5 6 -8 14
-7 14 2 65 35 55 35 -3 1 -8 -2 -11 -5z"/>
<path d="M18106 11819 c4 -8 30 -6 38 2 3 3 -5 5 -19 5 -13 0 -22 -3 -19 -7z"/>
<path d="M18455 11780 c3 -5 8 -10 11 -10 2 0 4 5 4 10 0 6 -5 10 -11 10 -5 0
-7 -4 -4 -10z"/>
<path d="M18480 11760 c0 -5 5 -10 10 -10 6 0 10 5 10 10 0 6 -4 10 -10 10 -5
0 -10 -4 -10 -10z"/>
<path d="M18050 11750 c0 -5 5 -10 10 -10 6 0 10 5 10 10 0 6 -4 10 -10 10 -5
0 -10 -4 -10 -10z"/>
<path d="M18505 11730 c4 -6 11 -8 16 -5 14 9 11 15 -7 15 -8 0 -12 -5 -9 -10z"/>
<path d="M18535 11711 c-3 -5 -1 -12 5 -16 5 -3 10 1 10 9 0 18 -6 21 -15 7z"/>
<path d="M18130 11680 c0 -5 5 -10 10 -10 6 0 10 5 10 10 0 6 -4 10 -10 10 -5
0 -10 -4 -10 -10z"/>
<path d="M18560 11680 c0 -5 5 -10 10 -10 6 0 10 5 10 10 0 6 -4 10 -10 10 -5
0 -10 -4 -10 -10z"/>
<path d="M18160 11650 c0 -5 5 -10 10 -10 6 0 10 5 10 10 0 6 -4 10 -10 10 -5
0 -10 -4 -10 -10z"/>
<path d="M18590 11650 c0 -5 5 -10 10 -10 6 0 10 5 10 10 0 6 -4 10 -10 10 -5
0 -10 -4 -10 -10z"/>
<path d="M18190 11633 c0 -5 9 -18 20 -28 11 -10 20 -15 20 -11 0 4 -9 16 -20
28 -11 12 -20 17 -20 11z"/>
<path d="M18615 11620 c3 -5 10 -10 16 -10 5 0 9 5 9 10 0 6 -7 10 -16 10 -8
0 -12 -4 -9 -10z"/>
<path d="M18245 11581 c-3 -5 -1 -12 5 -16 5 -3 10 1 10 9 0 18 -6 21 -15 7z"/>
<path d="M18675 11560 c3 -5 8 -10 11 -10 2 0 4 5 4 10 0 6 -5 10 -11 10 -5 0
-7 -4 -4 -10z"/>
<path d="M18270 11551 c0 -5 7 -12 16 -15 9 -4 14 -9 11 -12 -6 -7 29 -44 42
-44 5 0 12 7 15 16 8 22 8 24 -6 19 -7 -3 -25 6 -40 20 -29 27 -38 30 -38 16z"/>
<path d="M18374 11492 c4 -7 1 -12 -8 -12 -9 0 -16 -3 -16 -8 0 -12 41 -44 48
-37 4 3 0 10 -7 15 -8 4 -11 15 -8 24 3 8 1 18 -5 22 -7 4 -8 3 -4 -4z"/>
<path d="M18410 11410 c0 -5 5 -10 11 -10 5 0 7 5 4 10 -3 6 -8 10 -11 10 -2
0 -4 -4 -4 -10z"/>
<path d="M18435 11380 c3 -5 8 -10 11 -10 2 0 4 5 4 10 0 6 -5 10 -11 10 -5 0
-7 -4 -4 -10z"/>
<path d="M18490 11320 c0 -5 5 -10 11 -10 5 0 7 5 4 10 -3 6 -8 10 -11 10 -2
0 -4 -4 -4 -10z"/>
<path d="M8914 10748 c-21 -35 -42 -64 -46 -66 -4 -2 -8 -9 -8 -16 0 -6 -11
-27 -24 -46 -39 -59 -158 -270 -211 -375 -27 -55 -52 -102 -55 -105 -3 -3 -12
-21 -21 -40 -9 -19 -30 -64 -47 -100 -17 -36 -38 -83 -47 -105 -9 -22 -21 -51
-27 -65 -6 -14 -17 -38 -24 -55 -7 -16 -20 -46 -28 -67 -9 -20 -16 -43 -16
-52 0 -9 -4 -16 -9 -16 -5 0 -11 -10 -14 -22 -6 -24 -31 -98 -46 -133 -4 -11
-16 -37 -25 -58 -9 -21 -16 -46 -16 -57 0 -10 -4 -22 -10 -25 -20 -12 -10 -45
18 -57 152 -63 190 -96 221 -191 15 -45 34 -44 42 4 6 36 56 192 70 221 5 10
9 23 9 30 0 7 6 25 14 40 8 15 17 40 21 57 4 17 11 33 16 36 5 4 9 15 9 25 0
10 6 31 14 47 27 52 46 101 46 117 0 9 5 16 10 16 6 0 10 7 10 15 0 15 48 118
159 345 25 52 48 97 51 100 3 3 14 23 25 45 11 22 61 109 112 193 51 84 93
161 93 172 0 10 -33 52 -74 93 -40 41 -86 93 -101 115 -15 23 -33 42 -41 42
-7 0 -30 -28 -50 -62z"/>
<path d="M18380 10689 c0 -5 5 -7 10 -4 6 3 10 8 10 11 0 2 -4 4 -10 4 -5 0
-10 -5 -10 -11z"/>
<path d="M18450 10690 c0 -5 5 -10 10 -10 6 0 10 5 10 10 0 6 -4 10 -10 10 -5
0 -10 -4 -10 -10z"/>
<path d="M18410 10654 c0 -8 5 -12 10 -9 6 4 8 11 5 16 -9 14 -15 11 -15 -7z"/>
<path d="M18480 10650 c0 -19 3 -21 12 -12 9 9 9 15 0 24 -9 9 -12 7 -12 -12z"/>
<path d="M18437 10624 c-8 -8 1 -24 14 -24 5 0 9 7 9 15 0 15 -12 20 -23 9z"/>
<path d="M18500 10617 c0 -19 16 -31 24 -18 3 5 -1 14 -9 21 -12 10 -15 10
-15 -3z"/>
<path d="M18466 10584 c-8 -22 -8 -24 8 -24 8 0 16 -9 18 -21 3 -19 4 -19 35
7 18 14 30 30 27 35 -8 14 -24 10 -24 -6 0 -8 -9 -15 -20 -15 -11 0 -20 6 -20
14 0 22 -17 28 -24 10z"/>
<path d="M18555 10540 c-3 -11 -13 -20 -21 -20 -8 0 -14 -7 -14 -15 0 -8 3
-15 6 -15 3 0 12 7 20 15 9 8 20 15 25 15 5 0 9 -7 9 -15 0 -8 7 -15 15 -15 8
0 15 5 15 10 0 6 -7 13 -15 16 -8 4 -15 12 -15 19 0 23 -18 26 -25 5z"/>
<path d="M18540 10473 c0 -5 12 -19 25 -32 20 -18 25 -20 25 -7 0 9 -4 16 -10
16 -5 0 -10 7 -10 15 0 8 -7 15 -15 15 -8 0 -15 -3 -15 -7z"/>
<path d="M18613 10465 c0 -8 4 -15 9 -15 4 0 8 7 8 15 0 8 -4 15 -8 15 -5 0
-9 -7 -9 -15z"/>
<path d="M18640 10425 c0 -8 5 -15 10 -15 6 0 10 7 10 15 0 8 -4 15 -10 15 -5
0 -10 -7 -10 -15z"/>
<path d="M18600 10395 c0 -8 5 -15 10 -15 6 0 10 7 10 15 0 8 -4 15 -10 15 -5
0 -10 -7 -10 -15z"/>
<path d="M18670 10390 c0 -5 5 -10 10 -10 6 0 10 5 10 10 0 6 -4 10 -10 10 -5
0 -10 -4 -10 -10z"/>
<path d="M18750 10280 c0 -5 5 -10 10 -10 6 0 10 5 10 10 0 6 -4 10 -10 10 -5
0 -10 -4 -10 -10z"/>
<path d="M18780 10240 c0 -5 5 -10 10 -10 6 0 10 5 10 10 0 6 -4 10 -10 10 -5
0 -10 -4 -10 -10z"/>
<path d="M18805 10211 c-3 -5 2 -16 10 -24 8 -9 15 -20 15 -26 0 -6 7 -11 15
-11 8 0 15 -7 15 -15 0 -9 7 -18 15 -21 12 -5 12 -8 0 -20 -15 -16 -25 -18
-25 -6 0 17 -79 92 -86 81 -3 -6 2 -19 12 -28 11 -10 32 -34 49 -55 32 -38 45
-45 45 -22 0 18 27 28 53 20 13 -4 17 -2 13 5 -9 15 18 25 47 17 28 -7 67 -39
67 -55 0 -6 7 -11 16 -11 11 0 15 -6 11 -20 -3 -12 -1 -17 5 -14 5 3 23 -9 39
-27 16 -18 31 -30 34 -27 6 5 -14 30 -96 120 -45 49 -47 50 -104 49 -54 0 -61
2 -92 34 -18 19 -33 41 -33 50 0 16 -15 20 -25 6z"/>
<path d="M18740 10195 c0 -8 5 -15 10 -15 6 0 10 7 10 15 0 8 -4 15 -10 15 -5
0 -10 -7 -10 -15z"/>
<path d="M18820 10008 l1 -33 13 25 c14 25 13 40 -5 40 -5 0 -9 -15 -9 -32z"/>
<path d="M13366 9977 c3 -10 9 -15 12 -12 3 3 0 11 -7 18 -10 9 -11 8 -5 -6z"/>
<path d="M18815 9949 c-4 -6 -5 -12 -2 -15 2 -3 7 2 10 11 7 17 1 20 -8 4z"/>
<path d="M19170 9929 c0 -5 5 -7 10 -4 6 3 10 8 10 11 0 2 -4 4 -10 4 -5 0
-10 -5 -10 -11z"/>
<path d="M18825 9918 c-9 -22 4 -43 17 -30 7 7 7 16 0 29 -10 17 -11 17 -17 1z"/>
<path d="M19518 9878 c17 -6 32 -15 32 -19 0 -5 5 -9 10 -9 6 0 10 4 10 8 0
11 -46 32 -68 31 -9 -1 -2 -6 16 -11z"/>
<path d="M13443 9867 c-3 -5 0 -14 6 -20 9 -9 10 -7 5 8 -7 17 -5 18 7 8 13
-10 16 -10 16 0 0 15 -25 18 -34 4z"/>
<path d="M18847 9874 c-7 -7 34 -84 46 -84 11 0 8 14 -8 36 -8 10 -15 27 -15
37 0 17 -11 22 -23 11z"/>
<path d="M19268 9873 c12 -2 30 -2 40 0 9 3 -1 5 -23 4 -22 0 -30 -2 -17 -4z"/>
<path d="M13345 9850 c-3 -5 -3 -16 0 -22 4 -7 -1 -4 -10 7 -17 20 -17 20 -10
-4 7 -23 13 -48 14 -63 1 -4 8 -5 16 -2 9 4 15 0 15 -7 1 -9 4 -8 11 4 7 12 7
22 1 30 -5 7 -8 20 -7 29 4 21 -20 44 -30 28z m20 -40 c-3 -5 -12 -10 -18 -10
-7 0 -6 4 3 10 19 12 23 12 15 0z m10 -30 c3 -6 -1 -7 -9 -4 -18 7 -21 14 -7
14 6 0 13 -4 16 -10z"/>
<path d="M13521 9843 c-2 -20 16 -24 30 -5 13 15 12 16 -3 4 -13 -10 -17 -10
-21 0 -4 9 -6 9 -6 1z"/>
<path d="M13473 9812 c-1 -17 1 -21 5 -12 10 22 30 18 53 -10 15 -20 18 -21
12 -5 -6 18 -5 19 13 5 10 -8 16 -10 12 -6 -4 5 -3 15 3 22 7 8 7 14 -1 19 -6
4 -9 1 -8 -6 4 -18 -23 -18 -44 -1 -10 8 -18 12 -18 7 0 -4 -6 -3 -13 3 -10 8
-13 5 -14 -16z"/>
<path d="M13610 9770 c6 -11 13 -20 16 -20 2 0 0 9 -6 20 -6 11 -13 20 -16 20
-2 0 0 -9 6 -20z"/>
<path d="M13655 9780 c-4 -6 -11 -7 -17 -4 -7 4 -8 2 -4 -5 6 -9 11 -9 22 0
14 11 18 19 10 19 -3 0 -8 -5 -11 -10z"/>
<path d="M13480 9765 c8 -11 15 -21 16 -23 1 -2 5 5 8 15 4 9 4 14 0 10 -4 -4
-14 -1 -23 6 -14 11 -15 10 -1 -8z"/>
<path d="M18900 9771 c0 -6 5 -13 10 -16 6 -3 10 1 10 9 0 9 -4 16 -10 16 -5
0 -10 -4 -10 -9z"/>
<path d="M19230 9770 c-16 -5 -2 -6 35 -3 33 3 62 7 64 9 8 7 -74 2 -99 -6z"/>
<path d="M13520 9767 c0 -2 6 -10 14 -16 11 -9 16 -9 22 1 4 7 4 10 -1 6 -4
-4 -14 -3 -22 3 -7 6 -13 9 -13 6z"/>
<path d="M19630 9755 c0 -8 5 -15 10 -15 6 0 10 7 10 15 0 8 -4 15 -10 15 -5
0 -10 -7 -10 -15z"/>
<path d="M13567 9748 c-4 -13 -1 -16 14 -13 12 2 19 -2 19 -11 0 -8 -4 -13 -8
-10 -4 2 -8 -4 -8 -14 0 -10 5 -18 10 -17 5 1 12 -8 15 -21 7 -29 23 -30 33
-3 10 28 0 27 -12 -1 l-9 -23 0 23 c-1 32 0 37 8 35 4 -1 7 9 7 22 0 13 -4 21
-8 19 -5 -3 -6 -9 -3 -14 3 -4 -2 -13 -10 -20 -13 -11 -14 -8 -8 20 5 28 4 32
-10 27 -9 -3 -17 -1 -20 6 -2 6 -6 4 -10 -5z"/>
<path d="M13915 9738 c-6 -13 -17 -21 -25 -20 -8 2 -12 0 -7 -4 4 -4 -1 -17
-10 -28 -18 -21 -18 -21 3 -3 18 15 23 15 33 4 6 -8 23 -13 37 -11 28 3 45 13
26 15 -7 1 -16 3 -22 4 -5 1 -14 3 -19 4 -5 0 -7 15 -5 31 6 36 2 38 -11 8z
m2 -25 c-4 -3 -1 -13 6 -22 11 -14 10 -14 -5 -2 -16 12 -16 31 -1 31 4 0 3 -3
0 -7z"/>
<path d="M13942 9731 c0 -17 1 -31 3 -31 7 0 12 39 5 49 -4 7 -7 -1 -8 -18z"/>
<path d="M14900 9742 c0 -11 4 -23 9 -27 6 -3 8 4 6 16 -6 30 -15 37 -15 11z"/>
<path d="M13420 9734 c0 -8 5 -12 10 -9 6 4 8 11 5 16 -9 14 -15 11 -15 -7z"/>
<path d="M13679 9748 c-5 -18 -6 -38 -1 -34 7 8 12 36 6 36 -2 0 -4 -1 -5 -2z"/>
<path d="M13776 9737 c3 -10 9 -15 12 -12 3 3 0 11 -7 18 -10 9 -11 8 -5 -6z"/>
<path d="M13729 9733 c0 -5 -2 -16 -4 -25 -2 -10 2 -16 8 -15 7 1 11 -3 10 -9
-1 -7 6 -10 17 -7 11 3 20 1 20 -4 0 -5 -12 -10 -27 -11 -36 -3 -39 -8 -18
-32 18 -20 18 -20 33 2 9 12 16 29 17 37 0 9 5 22 9 29 7 11 4 11 -12 1 -16
-10 -23 -10 -36 0 -8 7 -12 19 -9 27 3 8 2 14 -1 14 -3 0 -6 -3 -7 -7z m41
-77 c0 -2 -6 -9 -14 -15 -11 -9 -16 -9 -22 0 -4 7 -3 9 4 5 6 -3 13 -2 17 4 6
10 15 14 15 6z"/>
<path d="M13754 9726 c1 -8 5 -18 8 -22 4 -3 5 1 4 10 -1 8 -5 18 -8 22 -4 3
-5 -1 -4 -10z"/>
<path d="M13966 9725 c-9 -26 -7 -32 5 -12 6 10 9 21 6 23 -2 3 -7 -2 -11 -11z"/>
<path d="M14550 9735 c0 -2 9 -9 20 -15 15 -8 20 -8 20 3 0 7 -9 13 -20 14
-11 1 -20 0 -20 -2z"/>
<path d="M14793 9720 c2 -8 9 -16 15 -16 23 -3 24 -4 11 -21 -12 -16 -12 -17
2 -5 13 10 18 10 28 -1 6 -8 9 -17 6 -20 -3 -4 -2 -5 2 -2 12 9 12 35 0 32 -6
-1 -11 4 -12 11 0 6 -4 12 -9 11 -5 0 -13 5 -17 13 -7 10 -9 10 -9 -2 0 -13
-1 -13 -11 0 -9 13 -10 13 -6 0z"/>
<path d="M19660 9718 c1 -22 36 -62 44 -49 4 6 0 14 -8 17 -9 3 -16 15 -16 25
0 10 -4 19 -10 19 -5 0 -10 -6 -10 -12z"/>
<path d="M13650 9706 c0 -8 4 -17 9 -20 5 -4 7 3 4 14 -6 23 -13 26 -13 6z"/>
<path d="M19590 9680 c0 -11 4 -20 9 -20 5 0 19 -16 31 -35 19 -31 42 -47 39
-27 -3 19 2 33 11 27 6 -3 7 1 4 9 -3 9 -10 14 -16 13 -6 -1 -12 7 -14 17 -6
37 -64 52 -64 16z m50 -10 c0 -5 -4 -10 -10 -10 -5 0 -10 5 -10 10 0 6 5 10
10 10 6 0 10 -4 10 -10z"/>
<path d="M14682 9674 c12 -13 14 -24 8 -30 -6 -6 0 -10 20 -9 16 0 26 2 22 5
-4 3 -20 16 -37 30 -22 18 -25 20 -13 4z"/>
<path d="M13668 9666 c-18 -14 -25 -32 -9 -21 5 3 12 1 16 -5 8 -13 22 -4 35
23 11 21 11 21 -4 3 -14 -18 -21 -15 -17 7 1 9 -1 9 -21 -7z"/>
<path d="M13800 9675 c0 -5 5 -17 10 -25 9 -13 10 -13 10 0 0 12 2 12 9 2 7
-11 9 -11 14 1 4 10 0 14 -11 12 -9 -1 -20 3 -24 9 -5 6 -8 7 -8 1z"/>
<path d="M14541 9653 c0 -12 4 -25 9 -28 6 -4 8 -10 5 -15 -3 -5 -2 -11 2 -13
5 -3 9 8 10 25 0 19 -2 26 -7 18 -6 -9 -10 -6 -13 11 -4 22 -4 22 -6 2z"/>
<path d="M14613 9655 c0 -8 4 -12 9 -9 5 3 6 10 3 15 -9 13 -12 11 -12 -6z"/>
<path d="M18962 9645 c0 -16 2 -22 5 -12 2 9 2 23 0 30 -3 6 -5 -1 -5 -18z"/>
<path d="M19289 9652 c-82 -15 -87 -17 -98 -47 -14 -39 -14 -55 -1 -55 6 0 10
14 10 32 0 17 3 28 7 25 3 -4 11 0 17 7 6 8 45 19 86 25 41 6 87 13 103 17 21
5 27 3 27 -10 0 -9 5 -16 10 -16 6 0 10 -6 10 -12 0 -20 47 -60 55 -48 3 5 -1
13 -9 16 -9 3 -16 12 -16 20 0 7 -6 17 -13 21 -8 4 -16 16 -20 26 -8 21 -47
21 -168 -1z"/>
<path d="M14460 9655 c0 -2 7 -8 15 -15 12 -10 15 -10 15 2 0 8 -7 15 -15 15
-8 0 -15 -1 -15 -2z"/>
<path d="M14782 9646 c2 -13 -4 -20 -22 -23 -13 -2 -29 -8 -35 -14 -7 -7 -4
-8 8 -3 12 4 16 2 14 -7 -2 -8 -2 -11 0 -6 3 4 9 5 13 2 5 -3 14 4 21 17 11
20 12 21 25 4 12 -17 13 -17 11 2 0 11 -4 19 -8 16 -4 -2 -13 4 -19 13 -10 17
-10 17 -8 -1z"/>
<path d="M19719 9658 c-4 -19 -9 -51 -6 -47 1 2 8 11 15 21 9 11 10 18 2 23
-5 3 -10 5 -11 3z"/>
<path d="M14626 9635 c-11 -8 -15 -15 -9 -15 6 0 16 7 23 15 16 19 11 19 -14
0z"/>
<path d="M14644 9602 c2 -9 6 -16 10 -15 23 6 24 9 7 20 -16 10 -19 9 -17 -5z"/>
<path d="M19730 9615 c0 -3 6 -21 14 -40 9 -21 11 -37 5 -41 -5 -3 -9 -2 -8 3
4 21 -3 32 -22 38 -17 6 -19 9 -8 17 12 8 11 9 -1 5 -8 -2 -14 -12 -12 -22 2
-11 -1 -14 -9 -10 -7 5 -10 3 -7 -6 3 -8 11 -13 18 -11 9 2 10 -5 6 -23 -5
-18 -2 -25 8 -25 7 0 16 -10 19 -22 6 -21 22 -18 22 5 0 6 15 15 33 21 34 9
43 30 17 40 -8 3 -15 12 -15 20 0 7 -7 16 -15 20 -8 3 -15 12 -15 21 0 8 -7
15 -15 15 -8 0 -15 -2 -15 -5z m60 -95 c0 -5 -4 -10 -10 -10 -5 0 -10 5 -10
10 0 6 5 10 10 10 6 0 10 -4 10 -10z"/>
<path d="M19031 9594 c0 -11 3 -14 6 -6 3 7 2 16 -1 19 -3 4 -6 -2 -5 -13z"/>
<path d="M14465 9581 c-3 -5 0 -13 6 -17 8 -4 7 -9 -2 -15 -8 -5 -9 -9 -3 -9
6 0 17 7 24 16 11 12 11 15 -1 12 -8 -2 -13 3 -11 10 2 14 -4 16 -13 3z"/>
<path d="M14623 9575 c0 -8 4 -12 9 -9 5 3 6 10 3 15 -9 13 -12 11 -12 -6z"/>
<path d="M18930 9580 c0 -5 5 -10 11 -10 5 0 7 5 4 10 -3 6 -8 10 -11 10 -2 0
-4 -4 -4 -10z"/>
<path d="M14953 9566 c-10 -11 -9 -15 2 -20 10 -4 15 1 15 14 0 23 -1 24 -17
6z"/>
<path d="M14599 9568 c-5 -19 -8 -50 -4 -46 7 7 15 48 9 48 -2 0 -4 -1 -5 -2z"/>
<path d="M19005 9550 c-3 -5 -1 -10 4 -10 6 0 11 5 11 10 0 6 -2 10 -4 10 -3
0 -8 -4 -11 -10z"/>
<path d="M19520 9541 c0 -5 5 -13 10 -16 6 -3 10 -2 10 4 0 5 -4 13 -10 16 -5
3 -10 2 -10 -4z"/>
<path d="M14528 9533 c7 -3 16 -2 19 1 4 3 -2 6 -13 5 -11 0 -14 -3 -6 -6z"/>
<path d="M14557 9527 c-3 -8 0 -14 7 -14 7 0 13 6 13 14 0 7 -4 13 -8 13 -4 0
-9 -6 -12 -13z"/>
<path d="M19547 9506 c-6 -14 31 -66 47 -66 13 0 4 26 -18 53 -19 24 -24 26
-29 13z"/>
<path d="M14500 9506 c0 -2 7 -7 16 -10 8 -3 12 -2 9 4 -6 10 -25 14 -25 6z"/>
<path d="M14986 9483 c10 -40 14 -41 14 -5 0 18 -5 32 -10 32 -6 0 -8 -11 -4
-27z"/>
<path d="M19826 9485 c4 -8 10 -15 15 -15 5 0 9 -6 9 -13 0 -23 25 -67 38 -67
17 0 15 29 -3 36 -8 4 -15 12 -15 19 0 7 -7 18 -15 25 -8 7 -12 16 -9 21 3 5
-2 9 -10 9 -10 0 -13 -6 -10 -15z"/>
<path d="M14396 9483 c-3 -3 -6 -11 -6 -17 0 -6 5 -4 10 4 8 13 10 12 10 -2 0
-19 15 -24 25 -9 7 12 -29 33 -39 24z"/>
<path d="M18879 9464 c-2 -10 -2 -39 1 -64 l6 -45 4 48 c6 52 -3 98 -11 61z"/>
<path d="M19760 9450 c0 -5 5 -10 11 -10 5 0 7 5 4 10 -3 6 -8 10 -11 10 -2 0
-4 -4 -4 -10z"/>
<path d="M19550 9439 c0 -5 5 -7 10 -4 17 11 11 -7 -7 -20 -16 -12 -14 -12 9
-8 23 4 26 8 17 24 -10 20 -29 26 -29 8z"/>
<path d="M15010 9430 c0 -8 5 -22 10 -30 9 -13 10 -13 10 0 0 8 -5 22 -10 30
-9 13 -10 13 -10 0z"/>
<path d="M19597 9434 c-3 -3 -3 -13 0 -21 5 -12 7 -12 14 -1 15 23 4 40 -14
22z"/>
<path d="M19800 9415 c-7 -9 -8 -15 -2 -15 5 0 12 7 16 15 3 8 4 15 2 15 -2 0
-9 -7 -16 -15z"/>
<path d="M19830 9407 c0 -9 -4 -17 -10 -17 -16 0 -12 -19 12 -50 17 -23 24
-27 35 -18 7 6 16 8 20 4 3 -3 2 -6 -4 -6 -18 0 -23 -28 -7 -34 8 -3 12 -2 9
3 -3 5 3 12 14 16 17 5 18 8 5 33 -7 15 -27 41 -44 57 -23 22 -30 25 -30 12z
m35 -38 c-4 -5 -12 -9 -18 -8 -9 0 -8 2 1 6 6 2 9 10 6 15 -4 7 -2 8 5 4 6 -4
9 -12 6 -17z"/>
<path d="M19571 9384 c6 -7 16 -11 21 -8 11 7 3 17 -18 20 -12 2 -13 -1 -3
-12z"/>
<path d="M19905 9380 c-4 -6 -3 -16 3 -22 6 -6 12 -6 17 2 4 6 3 16 -3 22 -6
6 -12 6 -17 -2z"/>
<path d="M19665 9351 c-3 -5 -2 -12 3 -15 5 -3 9 1 9 9 0 17 -3 19 -12 6z"/>
<path d="M19939 9348 c0 -2 -2 -11 -4 -21 -3 -15 -1 -16 11 -6 7 6 11 15 8 20
-5 9 -13 12 -15 7z"/>
<path d="M19150 9337 c0 -5 8 -19 18 -32 13 -16 23 -21 32 -15 12 7 11 10 -5
16 -11 4 -25 15 -32 23 -7 9 -13 12 -13 8z"/>
<path d="M19690 9316 c0 -9 5 -16 10 -16 6 0 10 4 10 9 0 6 -4 13 -10 16 -5 3
-10 -1 -10 -9z"/>
<path d="M19000 9310 c0 -5 5 -10 11 -10 5 0 7 5 4 10 -3 6 -8 10 -11 10 -2 0
-4 -4 -4 -10z"/>
<path d="M19960 9301 c0 -6 5 -13 10 -16 6 -3 10 1 10 9 0 9 -4 16 -10 16 -5
0 -10 -4 -10 -9z"/>
<path d="M19230 9285 c0 -18 36 -20 46 -2 4 6 4 9 -1 5 -4 -4 -16 -3 -26 3
-15 7 -19 6 -19 -6z"/>
<path d="M19030 9274 c0 -8 5 -12 10 -9 6 4 8 11 5 16 -9 14 -15 11 -15 -7z"/>
<path d="M18930 9271 c0 -6 5 -13 10 -16 6 -3 10 1 10 9 0 9 -4 16 -10 16 -5
0 -10 -4 -10 -9z"/>
<path d="M19720 9269 c0 -5 5 -7 10 -4 6 3 10 8 10 11 0 2 -4 4 -10 4 -5 0
-10 -5 -10 -11z"/>
<path d="M19990 9265 c0 -8 5 -15 10 -15 6 0 10 7 10 15 0 8 -4 15 -10 15 -5
0 -10 -7 -10 -15z"/>
<path d="M19285 9260 c3 -5 8 -10 11 -10 2 0 4 5 4 10 0 6 -5 10 -11 10 -5 0
-7 -4 -4 -10z"/>
<path d="M19253 9244 c-15 -16 -17 -34 -4 -34 10 0 26 39 19 45 -1 2 -9 -3
-15 -11z"/>
<path d="M19310 9245 c-7 -8 -16 -12 -21 -10 -4 3 -6 -4 -4 -15 2 -13 -1 -20
-11 -20 -8 0 -14 -9 -14 -20 0 -26 17 -25 40 2 13 16 15 25 7 30 -8 5 -5 13 7
27 11 12 17 21 14 21 -3 0 -11 -7 -18 -15z"/>
<path d="M18960 9236 c0 -8 4 -17 9 -20 10 -7 23 19 14 28 -11 11 -23 6 -23
-8z"/>
<path d="M19061 9234 c0 -11 3 -14 6 -6 3 7 2 16 -1 19 -3 4 -6 -2 -5 -13z"/>
<path d="M20020 9224 c0 -8 5 -12 10 -9 6 4 8 11 5 16 -9 14 -15 11 -15 -7z"/>
<path d="M18987 9196 c-6 -15 1 -26 15 -26 4 0 8 9 8 20 0 23 -15 27 -23 6z"/>
<path d="M19080 9197 c0 -7 5 -18 11 -24 8 -8 7 -13 -2 -18 -8 -5 -10 -4 -5 3
4 7 -6 18 -25 27 -17 9 -28 12 -25 7 3 -6 -1 -12 -9 -16 -19 -7 -19 -32 0 -40
8 -3 15 -12 15 -21 0 -8 3 -15 8 -15 4 0 18 -18 32 -40 25 -41 40 -51 40 -26
0 8 16 20 35 27 37 14 44 26 20 35 -8 4 -15 13 -15 20 0 15 -3 19 -45 67 -27
30 -35 33 -35 14z m-24 -42 c1 -8 -2 -13 -7 -9 -5 3 -9 12 -9 21 0 19 13 9 16
-12z m69 -25 c3 -5 2 -10 -4 -10 -5 0 -13 5 -16 10 -3 6 -2 10 4 10 5 0 13 -4
16 -10z"/>
<path d="M19770 9200 c0 -5 5 -10 10 -10 6 0 10 5 10 10 0 6 -4 10 -10 10 -5
0 -10 -4 -10 -10z"/>
<path d="M19306 9169 c-18 -21 -21 -39 -7 -39 14 0 32 26 23 35 -4 5 -2 5 5 1
6 -3 14 -2 17 3 12 18 -22 19 -38 0z"/>
<path d="M20075 9161 c-3 -5 -1 -12 5 -16 5 -3 10 1 10 9 0 18 -6 21 -15 7z"/>
<path d="M20100 9115 c0 -8 5 -15 10 -15 6 0 10 7 10 15 0 8 -4 15 -10 15 -5
0 -10 -7 -10 -15z"/>
<path d="M20130 9080 c0 -5 5 -10 11 -10 5 0 7 5 4 10 -3 6 -8 10 -11 10 -2 0
-4 -4 -4 -10z"/>
<path d="M8156 9069 c-53 -15 -58 -31 -95 -269 -5 -31 -11 -66 -15 -78 -4 -12
-11 -52 -16 -89 -21 -158 -32 -219 -40 -238 -5 -11 -11 -50 -15 -88 -3 -37
-10 -79 -15 -93 -6 -14 -10 -45 -10 -69 0 -24 -7 -70 -15 -102 -8 -31 -15 -78
-15 -103 0 -26 -3 -50 -7 -54 -10 -9 -30 -123 -42 -234 -5 -46 -12 -86 -15
-90 -9 -9 -46 29 -46 48 0 9 -7 25 -15 36 -8 10 -15 27 -15 37 0 11 -6 31 -14
45 -29 55 -46 101 -46 125 0 14 -4 29 -10 32 -5 3 -10 14 -10 23 0 9 -7 30
-15 46 -8 15 -15 34 -15 41 0 26 -52 131 -73 147 -31 25 -81 23 -110 -4 -13
-13 -32 -45 -42 -73 -10 -27 -30 -78 -46 -113 -16 -35 -29 -70 -29 -77 0 -8
-4 -16 -9 -20 -5 -3 -12 -19 -16 -35 -4 -17 -11 -30 -16 -30 -5 0 -9 -10 -9
-22 -1 -13 -7 -34 -15 -48 -8 -14 -15 -34 -15 -45 0 -11 -7 -28 -14 -38 -13
-17 -33 -18 -248 -18 -204 1 -237 -1 -268 -16 -56 -29 -66 -92 -21 -139 26
-28 93 -33 388 -30 254 3 273 7 293 64 6 15 15 35 20 44 6 10 10 24 10 32 0 8
8 29 17 48 30 61 33 68 33 86 0 24 28 62 46 62 8 0 14 -7 14 -16 0 -9 6 -30
14 -47 7 -18 21 -52 31 -77 9 -25 23 -60 31 -78 8 -18 14 -39 14 -47 0 -13 19
-62 40 -105 4 -9 11 -30 14 -48 4 -17 12 -34 17 -37 5 -4 9 -16 9 -29 0 -12 3
-26 6 -29 9 -9 54 -119 54 -133 0 -20 56 -64 83 -64 37 0 73 18 85 44 6 11 18
62 27 111 8 50 21 115 27 145 6 30 15 84 20 120 9 65 32 227 48 330 18 119 32
198 46 257 8 34 14 81 15 105 1 77 48 164 50 91 0 -31 11 -122 34 -283 8 -58
19 -143 25 -190 5 -47 14 -101 20 -120 5 -19 10 -58 10 -86 0 -28 5 -76 11
-105 6 -30 15 -85 19 -124 5 -38 15 -117 24 -175 9 -58 21 -148 26 -200 6 -52
13 -102 16 -110 3 -8 10 -51 14 -95 7 -73 26 -219 36 -272 2 -12 16 -35 30
-52 51 -61 135 -28 161 64 10 37 21 84 43 195 5 25 16 75 24 113 37 158 47
204 55 242 8 38 16 71 47 196 8 30 14 67 14 80 0 14 3 29 7 33 5 4 13 35 19
69 11 55 28 132 55 237 4 19 14 59 21 88 6 28 15 52 19 52 12 0 49 -66 49 -88
0 -11 7 -33 15 -48 8 -16 15 -37 15 -46 0 -10 4 -18 9 -18 5 0 11 -10 14 -22
15 -61 41 -118 64 -140 l25 -23 426 3 c344 2 431 6 448 17 26 16 38 72 25 108
-22 57 -22 57 -427 57 l-372 0 -16 34 c-9 19 -16 39 -16 45 0 6 -4 19 -10 29
-9 17 -22 48 -55 132 -10 25 -23 59 -31 75 -7 17 -20 48 -29 70 -9 22 -20 49
-25 60 -5 11 -18 46 -28 78 -27 81 -52 107 -102 107 -50 0 -87 -34 -95 -89 -4
-20 -10 -46 -16 -59 -5 -13 -9 -31 -9 -41 0 -10 -6 -41 -14 -67 -21 -73 -53
-209 -76 -324 -5 -25 -17 -74 -25 -110 -9 -36 -21 -96 -26 -135 -5 -38 -20
-106 -34 -150 -13 -44 -32 -104 -41 -133 -19 -65 -37 -63 -42 4 -2 27 -8 57
-14 67 -5 10 -13 68 -19 130 -16 199 -26 285 -34 297 -4 6 -11 51 -16 98 -5
48 -15 139 -24 202 -8 63 -19 151 -24 195 -6 44 -15 109 -20 145 -6 36 -17
121 -26 190 -9 69 -20 152 -26 185 -5 33 -14 94 -19 135 -13 110 -35 223 -48
247 -15 27 -59 42 -96 32z"/>
<path d="M19190 9050 c0 -5 5 -10 10 -10 6 0 10 5 10 10 0 6 -4 10 -10 10 -5
0 -10 -4 -10 -10z"/>
<path d="M20152 9039 c2 -7 10 -15 17 -17 8 -3 12 1 9 9 -2 7 -10 15 -17 17
-8 3 -12 -1 -9 -9z"/>
<path d="M19370 9024 c0 -8 5 -12 10 -9 6 4 8 11 5 16 -9 14 -15 11 -15 -7z"/>
<path d="M19220 9016 c0 -9 5 -16 10 -16 6 0 10 4 10 9 0 6 -4 13 -10 16 -5 3
-10 -1 -10 -9z"/>
<path d="M19126 9005 c-3 -9 1 -18 9 -21 8 -4 15 -12 15 -20 0 -8 5 -14 10
-14 6 0 10 4 10 9 0 6 -4 13 -10 16 -5 3 -10 15 -10 26 0 23 -15 25 -24 4z"/>
<path d="M20038 9013 c6 -2 18 -2 25 0 6 3 1 5 -13 5 -14 0 -19 -2 -12 -5z"/>
<path d="M20180 8997 c0 -7 5 -18 12 -25 6 -6 8 -15 3 -19 -4 -5 -10 -2 -12 5
-7 19 -23 14 -23 -9 0 -11 -4 -17 -10 -14 -5 3 -10 -3 -10 -14 0 -12 3 -21 8
-21 9 0 47 -68 41 -73 -2 -2 -26 -19 -54 -37 -50 -34 -76 -54 -100 -77 -8 -7
-16 -13 -20 -13 -10 0 -38 -31 -51 -55 -17 -34 8 -57 47 -43 16 5 29 14 29 19
0 5 7 9 15 9 8 0 15 4 15 8 0 5 11 15 25 22 14 7 25 20 25 27 0 11 -4 11 -22
1 -13 -7 -27 -11 -33 -9 -5 1 -7 0 -3 -4 9 -10 -28 -44 -56 -51 -13 -3 -27 -1
-31 6 -4 7 0 10 11 8 14 -2 18 2 16 16 -3 14 1 18 16 14 16 -4 18 -1 14 15 -4
17 -1 19 16 15 14 -4 20 -2 16 4 -4 6 2 8 17 3 19 -6 21 -5 13 5 -9 9 -7 17 9
33 13 13 22 17 25 9 2 -7 10 -12 18 -12 8 0 14 -5 14 -12 0 -6 3 -8 7 -5 3 4
-2 16 -11 26 -17 18 -17 20 1 30 21 11 49 -1 40 -16 -4 -6 4 -8 20 -5 21 4 33
-3 64 -37 21 -22 41 -41 44 -41 10 0 5 28 -7 32 -6 2 -12 12 -14 21 -1 9 2 14
8 11 5 -3 8 2 6 12 -1 11 2 19 7 19 6 0 9 -6 9 -12 -1 -7 2 -10 7 -8 4 3 17
-5 28 -17 12 -12 21 -16 21 -10 0 17 -22 55 -37 65 -7 4 -13 12 -13 18 0 5
-11 22 -25 37 -14 15 -25 33 -25 40 0 7 -7 15 -15 18 -8 4 -15 12 -15 20 0 17
-26 19 -34 2 -3 -7 -3 -1 0 14 4 18 0 32 -15 47 -24 24 -31 26 -31 8z"/>
<path d="M20090 8991 c0 -6 4 -13 10 -16 6 -3 7 1 4 9 -7 18 -14 21 -14 7z"/>
<path d="M19247 8971 c3 -12 10 -21 15 -21 13 0 6 32 -9 37 -7 3 -9 -3 -6 -16z"/>
<path d="M19840 8949 c0 -5 5 -7 10 -4 6 3 10 8 10 11 0 2 -4 4 -10 4 -5 0
-10 -5 -10 -11z"/>
<path d="M19180 8930 c0 -10 8 -22 38 -55 6 -7 12 -18 12 -24 0 -6 7 -11 15
-11 8 0 15 7 15 15 0 8 5 15 10 15 6 0 10 -7 10 -15 0 -8 -4 -15 -10 -15 -13
0 -13 -37 0 -45 5 -3 12 6 16 21 5 18 9 22 15 13 4 -7 11 -10 15 -7 4 4 -4 19
-17 32 -17 18 -31 23 -46 19 -17 -4 -23 -1 -23 11 0 9 -7 19 -15 22 -8 4 -15
12 -15 20 0 8 -4 14 -10 14 -5 0 -10 -5 -10 -10z"/>
<path d="M19815 8930 c-3 -5 -1 -10 4 -10 6 0 11 5 11 10 0 6 -2 10 -4 10 -3
0 -8 -4 -11 -10z"/>
<path d="M19580 8909 c0 -5 5 -7 10 -4 6 3 10 8 10 11 0 2 -4 4 -10 4 -5 0
-10 -5 -10 -11z"/>
<path d="M19303 8895 c0 -8 4 -15 9 -15 4 0 8 -7 8 -15 0 -7 6 -18 13 -22 8
-4 16 -16 20 -25 3 -10 11 -18 17 -18 16 0 12 30 -5 36 -8 4 -15 12 -15 18 0
7 -10 22 -23 34 -18 17 -24 19 -24 7z"/>
<path d="M19864 8895 c-12 -9 -14 -14 -6 -15 7 0 20 7 28 15 20 19 4 20 -22 0z"/>
<path d="M19550 8890 c0 -5 5 -10 10 -10 6 0 10 5 10 10 0 6 -4 10 -10 10 -5
0 -10 -4 -10 -10z"/>
<path d="M19516 8864 c-11 -7 -17 -17 -13 -20 3 -4 14 1 23 10 21 22 15 28
-10 10z"/>
<path d="M14151 8804 c0 -11 3 -14 6 -6 3 7 2 16 -1 19 -3 4 -6 -2 -5 -13z"/>
<path d="M19290 8775 c0 -8 5 -15 10 -15 6 0 10 7 10 15 0 8 -4 15 -10 15 -5
0 -10 -7 -10 -15z"/>
<path d="M19385 8780 c3 -5 8 -10 11 -10 2 0 4 5 4 10 0 6 -5 10 -11 10 -5 0
-7 -4 -4 -10z"/>
<path d="M19312 8739 c2 -6 8 -10 13 -10 5 0 11 4 13 10 2 6 -4 11 -13 11 -9
0 -15 -5 -13 -11z"/>
<path d="M19415 8740 c3 -5 8 -10 11 -10 2 0 4 5 4 10 0 6 -5 10 -11 10 -5 0
-7 -4 -4 -10z"/>
<path d="M20105 8730 c-3 -5 -1 -10 4 -10 6 0 11 5 11 10 0 6 -2 10 -4 10 -3
0 -8 -4 -11 -10z"/>
<path d="M19440 8711 c0 -6 5 -13 10 -16 6 -3 10 1 10 9 0 9 -4 16 -10 16 -5
0 -10 -4 -10 -9z"/>
<path d="M20130 8710 c0 -5 5 -10 11 -10 5 0 7 5 4 10 -3 6 -8 10 -11 10 -2 0
-4 -4 -4 -10z"/>
<path d="M19346 8695 c4 -8 8 -15 10 -15 2 0 4 7 4 15 0 8 -4 15 -10 15 -5 0
-7 -7 -4 -15z"/>
<path d="M20400 8701 c0 -6 5 -13 10 -16 6 -3 10 1 10 9 0 9 -4 16 -10 16 -5
0 -10 -4 -10 -9z"/>
<path d="M19370 8660 c0 -19 3 -21 12 -12 9 9 9 15 0 24 -9 9 -12 7 -12 -12z"/>
<path d="M19470 8670 c0 -5 5 -10 10 -10 6 0 10 5 10 10 0 6 -4 10 -10 10 -5
0 -10 -4 -10 -10z"/>
<path d="M20426 8671 c-3 -5 1 -14 9 -21 8 -7 15 -19 15 -26 0 -8 7 -14 15
-14 8 0 15 7 15 15 0 8 -7 15 -15 15 -8 0 -15 9 -15 20 0 20 -14 27 -24 11z"/>
<path d="M20334 8659 c-4 -7 1 -16 10 -21 9 -5 16 -15 16 -23 0 -7 6 -15 13
-18 8 -3 4 -13 -13 -32 -24 -27 -24 -27 -2 -16 12 6 22 15 22 19 0 4 8 8 19 8
13 0 17 -5 13 -16 -3 -8 -1 -12 3 -7 5 4 17 -1 27 -10 18 -16 19 -16 24 4 6
23 35 25 42 2 3 -8 11 -18 18 -22 8 -4 14 -15 14 -22 0 -8 5 -15 10 -15 18 0
10 32 -14 55 -13 12 -27 32 -31 45 -7 23 -8 23 -22 4 -18 -25 -53 -27 -53 -4
0 13 -6 17 -20 13 -14 -4 -20 0 -20 11 0 9 -7 19 -15 22 -8 4 -15 12 -15 20 0
17 -16 18 -26 3z m124 -114 c-3 -3 -9 2 -12 12 -6 14 -5 15 5 6 7 -7 10 -15 7
-18z"/>
<path d="M19400 8614 c0 -8 5 -12 10 -9 6 4 8 11 5 16 -9 14 -15 11 -15 -7z"/>
<path d="M19520 8595 c0 -8 5 -15 10 -15 6 0 10 7 10 15 0 8 -4 15 -10 15 -5
0 -10 -7 -10 -15z"/>
<path d="M19550 8550 c0 -11 5 -20 11 -20 13 0 8 -62 -6 -72 -17 -13 -25 -9
-25 13 0 11 4 18 9 15 11 -7 8 20 -3 31 -4 4 -6 2 -4 -6 2 -8 -6 -17 -16 -19
-14 -3 -17 0 -13 12 4 10 1 16 -8 16 -17 0 -19 -16 -5 -33 39 -46 50 -61 50
-69 0 -4 5 -8 10 -8 6 0 10 9 10 20 0 11 5 20 11 20 5 0 8 -4 5 -8 -3 -5 1 -9
9 -9 8 0 13 5 12 11 -1 5 4 10 12 11 21 0 24 20 6 35 -8 7 -15 19 -15 26 0 8
-7 14 -15 14 -8 0 -15 9 -15 20 0 11 -4 20 -10 20 -5 0 -10 -9 -10 -20z m50
-67 c0 -10 -20 -40 -20 -31 0 3 -3 13 -6 22 -4 11 -1 16 10 16 9 0 16 -3 16
-7z"/>
<path d="M19450 8540 c0 -5 7 -10 16 -10 8 0 12 5 9 10 -3 6 -10 10 -16 10 -5
0 -9 -4 -9 -10z"/>
<path d="M20273 8504 c-27 -24 -27 -24 -3 -12 14 7 27 16 30 19 3 3 12 9 20
12 12 4 12 6 -2 6 -9 1 -30 -10 -45 -25z"/>
<path d="M15150 8470 c-41 -27 -70 -50 -65 -50 6 0 27 11 48 25 20 14 42 23
49 19 7 -4 8 -3 4 4 -4 6 6 18 24 27 29 15 39 26 23 25 -5 -1 -42 -23 -83 -50z"/>
<path d="M20385 8510 c-7 -12 2 -12 30 0 19 8 19 9 -2 9 -12 1 -25 -3 -28 -9z"/>
<path d="M15293 8476 c1 -6 -4 -11 -10 -12 -7 -1 -16 -3 -20 -4 -5 -1 -12 -2
-16 -1 -5 1 -6 -3 -2 -9 5 -8 11 -7 21 1 8 6 14 8 14 4 0 -4 6 -3 13 2 6 6 24
9 39 8 22 -2 26 1 17 11 -13 15 -59 15 -56 0z"/>
<path d="M15216 8463 c-6 -14 -5 -15 5 -6 7 7 10 15 7 18 -3 3 -9 -2 -12 -12z"/>
<path d="M19629 8453 c-1 -5 -1 -11 0 -15 0 -3 -13 -10 -30 -13 -34 -8 -48
-30 -30 -48 9 -9 14 -8 21 3 5 8 7 17 5 20 -2 4 1 7 8 7 7 0 13 -8 13 -18 0
-10 -5 -17 -10 -16 -5 1 -12 -6 -14 -15 -2 -11 2 -18 12 -18 9 0 16 5 16 10 0
6 4 10 10 10 6 0 5 -11 -3 -27 -9 -21 -9 -27 1 -31 6 -2 12 -10 12 -17 0 -8 9
-19 20 -25 11 -6 18 -15 15 -19 -3 -5 2 -11 10 -15 8 -3 15 -11 15 -18 1 -13
34 -58 43 -58 3 0 8 10 11 23 6 22 7 22 22 -5 18 -35 26 -36 20 -2 -3 16 0 27
10 31 19 7 18 33 -1 33 -8 0 -15 9 -15 20 0 11 -7 20 -15 20 -8 0 -15 -7 -15
-15 0 -9 7 -18 15 -21 8 -4 15 -15 15 -25 0 -16 -3 -18 -20 -9 -11 6 -17 16
-14 25 4 8 2 15 -4 15 -6 0 -8 -13 -6 -30 4 -22 1 -30 -10 -30 -12 0 -14 5 -6
25 9 24 6 29 -14 26 -9 -2 -26 18 -26 32 0 11 24 4 35 -11 9 -11 14 -8 25 13
13 24 12 28 -2 36 -10 5 -15 16 -12 24 4 8 1 15 -5 15 -6 0 -16 11 -21 25 -5
14 -14 25 -20 25 -5 0 -10 6 -10 13 -1 13 -34 57 -44 57 -3 0 -7 -3 -7 -7z
m17 -48 c-3 -9 3 -19 14 -25 11 -6 20 -17 20 -25 0 -8 7 -15 15 -15 8 0 15 -6
15 -14 0 -8 7 -16 15 -20 8 -3 15 -15 15 -27 0 -18 -3 -19 -15 -9 -8 7 -23 9
-36 5 -19 -6 -21 -4 -17 19 3 15 1 29 -5 33 -5 3 -7 1 -3 -5 3 -6 2 -13 -3
-16 -5 -3 -12 1 -15 10 -9 22 -7 36 2 30 5 -3 9 1 9 9 0 8 -5 13 -10 12 -6 -1
-11 10 -12 26 -1 15 2 27 8 27 5 0 7 -7 3 -15z"/>
<path d="M20195 8450 c-3 -5 -1 -10 4 -10 6 0 11 5 11 10 0 6 -2 10 -4 10 -3
0 -8 -4 -11 -10z"/>
<path d="M20895 8450 c-13 -6 -15 -9 -5 -9 8 0 22 4 30 9 18 12 2 12 -25 0z"/>
<path d="M20945 8450 c3 -5 12 -10 20 -10 8 0 19 -8 24 -17 7 -13 10 -14 11
-4 0 16 -29 40 -48 41 -7 0 -10 -4 -7 -10z"/>
<path d="M15333 8442 c-13 -2 -23 -8 -23 -13 0 -6 -5 -7 -11 -3 -8 4 -8 0 0
-15 7 -11 15 -20 19 -18 4 1 7 -2 7 -8 0 -5 -4 -9 -8 -7 -5 1 0 -10 12 -26 11
-16 18 -32 15 -34 -3 -3 2 -8 10 -11 10 -4 13 -1 9 9 -3 9 0 14 8 12 8 -2 14
5 14 17 0 11 -8 21 -17 22 -13 2 -14 1 -3 -3 8 -3 15 -13 15 -22 0 -14 -2 -14
-9 -3 -5 7 -13 11 -19 7 -15 -9 -23 21 -8 33 7 6 15 9 18 6 2 -3 5 2 5 10 0 8
-4 12 -9 9 -4 -3 -8 1 -8 8 0 9 -3 9 -10 -2 -9 -13 -10 -13 -10 0 0 13 -1 13
-11 0 -9 -13 -10 -13 -6 0 3 10 15 14 38 12 19 -1 30 1 24 6 -5 4 -12 10 -15
13 -3 2 -15 3 -27 1z"/>
<path d="M20843 8415 c-7 -8 -21 -18 -30 -24 -10 -5 -16 -12 -13 -14 3 -3 21
8 40 24 19 15 31 28 25 28 -5 0 -16 -6 -22 -14z"/>
<path d="M20620 8411 c0 -5 5 -13 10 -16 6 -3 10 -2 10 4 0 5 -4 13 -10 16 -5
3 -10 2 -10 -4z"/>
<path d="M20531 8384 c0 -11 3 -14 6 -6 3 7 2 16 -1 19 -3 4 -6 -2 -5 -13z"/>
<path d="M20195 8369 c-16 -11 -23 -19 -15 -19 16 1 56 27 49 34 -2 2 -17 -5
-34 -15z"/>
<path d="M20646 8365 c6 -15 -33 -37 -49 -28 -20 12 -15 -28 7 -52 24 -26 31
-26 27 -1 -1 6 3 20 10 32 11 22 13 22 44 7 31 -15 34 -14 69 9 20 14 33 27
30 31 -3 3 -16 -3 -27 -14 -29 -26 -76 -22 -83 8 -4 13 -12 23 -20 23 -8 0
-11 -6 -8 -15z"/>
<path d="M20985 8320 c-3 -5 -1 -10 4 -10 6 0 11 5 11 10 0 6 -2 10 -4 10 -3
0 -8 -4 -11 -10z"/>
<path d="M15407 8293 c6 -16 5 -17 -13 -3 -18 14 -18 14 -1 -6 9 -11 15 -24
12 -27 -3 -4 -2 -5 2 -2 11 9 13 44 3 50 -6 4 -7 -1 -3 -12z"/>
<path d="M20950 8290 c0 -5 -5 -10 -10 -10 -6 0 -21 -9 -33 -20 -12 -11 -27
-18 -34 -16 -7 3 -10 -1 -6 -10 3 -7 0 -14 -6 -14 -6 0 -20 -8 -30 -17 -10
-10 -31 -28 -46 -40 -15 -13 -23 -23 -19 -23 12 0 113 70 143 98 15 15 38 35
51 44 20 14 22 17 8 17 -10 1 -18 -3 -18 -9z"/>
<path d="M15299 8288 c-5 -18 -6 -38 -1 -34 7 8 12 36 6 36 -2 0 -4 -1 -5 -2z"/>
<path d="M20803 8225 c0 -7 6 -11 14 -8 7 3 13 6 13 8 0 2 -6 5 -13 8 -8 3
-14 -1 -14 -8z"/>
<path d="M20585 8220 c-3 -5 -1 -10 4 -10 6 0 11 5 11 10 0 6 -2 10 -4 10 -3
0 -8 -4 -11 -10z"/>
<path d="M19820 8180 c0 -10 36 -50 45 -50 11 0 4 21 -12 40 -19 22 -33 26
-33 10z"/>
<path d="M19756 8125 c4 -8 10 -12 15 -9 14 8 10 24 -6 24 -9 0 -12 -6 -9 -15z"/>
<path d="M20419 8101 c-20 -14 -71 -53 -113 -86 -42 -33 -90 -69 -106 -81 -16
-12 -43 -33 -60 -48 -17 -14 -41 -26 -53 -26 -15 0 -18 -3 -10 -11 18 -18 128
48 204 124 16 15 33 27 39 27 5 0 10 5 10 10 0 6 5 10 10 10 6 0 23 11 38 24
15 14 40 36 57 50 40 34 29 39 -16 7z"/>
<path d="M19880 8106 c0 -9 5 -16 10 -16 6 0 10 4 10 9 0 6 -4 13 -10 16 -5 3
-10 -1 -10 -9z"/>
<path d="M19780 8096 c0 -9 5 -16 10 -16 6 0 10 4 10 9 0 6 -4 13 -10 16 -5 3
-10 -1 -10 -9z"/>
<path d="M19910 8060 c0 -5 5 -10 10 -10 6 0 10 5 10 10 0 6 -4 10 -10 10 -5
0 -10 -4 -10 -10z"/>
<path d="M20620 8025 c0 -14 4 -25 9 -25 6 0 9 -9 8 -19 0 -11 -5 -17 -9 -15
-5 3 -6 9 -3 14 6 9 -12 23 -32 26 -9 2 -8 -5 2 -20 8 -13 13 -25 10 -28 -8
-8 29 -3 43 6 9 5 15 1 19 -13 3 -12 12 -21 19 -21 8 0 14 -7 14 -15 0 -8 7
-15 15 -15 9 0 12 6 9 15 -4 8 -10 15 -15 15 -5 0 -9 7 -9 15 0 8 -7 15 -15
15 -8 0 -15 9 -15 19 0 10 -7 21 -15 25 -8 3 -15 15 -15 26 0 11 -4 20 -10 20
-5 0 -10 -11 -10 -25z"/>
<path d="M19841 8014 c0 -11 3 -14 6 -6 3 7 2 16 -1 19 -3 4 -6 -2 -5 -13z"/>
<path d="M20380 8015 c-7 -8 -10 -16 -6 -16 3 -1 10 -2 15 -3 5 0 13 -4 17 -8
4 -5 12 -8 18 -8 6 0 0 7 -12 16 -12 8 -20 20 -17 25 10 14 -1 10 -15 -6z"/>
<path d="M20415 8021 c-3 -5 -2 -12 3 -15 5 -3 9 1 9 9 0 17 -3 19 -12 6z"/>
<path d="M19964 7999 c-3 -6 -1 -16 5 -22 8 -8 11 -5 11 11 0 24 -5 28 -16 11z"/>
<path d="M20540 7984 c-17 -9 -20 -14 -9 -14 9 0 22 7 29 15 15 18 13 18 -20
-1z"/>
<path d="M20335 7981 c-3 -5 -2 -12 3 -15 5 -3 9 1 9 9 0 17 -3 19 -12 6z"/>
<path d="M19985 7949 c-4 -12 -12 -18 -21 -15 -8 3 -14 1 -14 -3 0 -14 29 -21
36 -10 4 8 10 7 17 0 14 -14 6 -21 -28 -27 -19 -3 -31 1 -41 13 -8 12 -13 13
-14 5 0 -7 5 -18 10 -25 42 -49 62 -68 67 -63 4 4 1 12 -5 18 -20 20 -13 26
27 21 42 -5 59 8 36 27 -8 7 -15 19 -15 26 0 8 -7 14 -15 14 -8 0 -15 9 -15
20 0 26 -17 26 -25 -1z m55 -69 c0 -5 -5 -10 -11 -10 -5 0 -7 5 -4 10 3 6 8
10 11 10 2 0 4 -4 4 -10z"/>
<path d="M20327 7946 c18 -16 32 -21 39 -15 6 5 15 5 19 1 5 -4 5 -2 1 5 -3 6
-15 10 -26 8 -10 -2 -24 3 -31 11 -6 8 -16 14 -21 14 -5 0 4 -11 19 -24z"/>
<path d="M19895 7940 c-3 -5 1 -10 9 -10 9 0 16 5 16 10 0 6 -4 10 -9 10 -6 0
-13 -4 -16 -10z"/>
<path d="M20277 7943 c-14 -13 -6 -20 23 -21 17 0 28 4 24 9 -3 5 -10 7 -15 4
-5 -4 -9 -1 -9 4 0 12 -13 14 -23 4z"/>
<path d="M20549 7940 c-8 -6 -8 -9 0 -14 6 -4 11 -2 11 4 0 6 4 9 9 5 5 -3 12
-2 15 3 6 10 -19 11 -35 2z"/>
<path d="M20206 7878 c3 -5 10 -6 15 -3 13 9 11 12 -6 12 -8 0 -12 -4 -9 -9z"/>
<path d="M20236 7872 c-3 -5 1 -9 9 -9 8 0 12 4 9 9 -3 4 -7 8 -9 8 -2 0 -6
-4 -9 -8z"/>
<path d="M20405 7870 c5 -8 42 -6 50 1 2 3 -8 5 -25 5 -16 0 -27 -3 -25 -6z"/>
<path d="M15569 7798 c-6 -25 -6 -39 1 -43 5 -3 7 -13 5 -23 -2 -12 3 -18 16
-19 10 -1 19 3 19 8 0 6 -4 8 -9 4 -5 -3 -12 -1 -16 5 -3 5 0 10 7 10 8 0 6 5
-5 11 -14 8 -15 14 -7 24 8 9 8 15 0 20 -5 3 -10 5 -11 3z"/>
<path d="M20298 7783 c6 -2 18 -2 25 0 6 3 1 5 -13 5 -14 0 -19 -2 -12 -5z"/>
<path d="M20240 7750 c0 -5 5 -10 10 -10 6 0 10 5 10 10 0 6 -4 10 -10 10 -5
0 -10 -4 -10 -10z"/>
<path d="M20840 7726 c0 -8 7 -17 16 -20 9 -4 14 -13 10 -21 -3 -9 0 -15 9
-15 8 0 15 -7 15 -15 0 -8 7 -15 15 -15 8 0 15 7 15 15 0 8 -7 15 -15 15 -8 0
-15 9 -15 20 0 11 -7 20 -15 20 -8 0 -15 7 -15 15 0 8 -4 15 -10 15 -5 0 -10
-6 -10 -14z"/>
<path d="M15573 7675 c0 -7 6 -12 13 -12 7 0 11 4 8 8 -2 4 2 9 8 12 7 3 4 5
-8 4 -11 -1 -21 -6 -21 -12z"/>
<path d="M19856 7665 c-10 -7 -16 -19 -14 -26 2 -7 11 0 21 15 20 30 19 31 -7
11z"/>
<path d="M15621 7638 c-1 -21 15 -32 25 -17 4 7 3 9 -4 5 -6 -3 -13 2 -15 11
-4 16 -5 16 -6 1z"/>
<path d="M21278 7636 c-49 -26 -74 -46 -57 -46 9 0 26 9 39 20 29 25 78 25
108 1 25 -22 27 -33 10 -62 -11 -17 -10 -22 4 -30 9 -5 14 -17 11 -28 -3 -10
0 -22 6 -26 8 -4 11 5 9 30 -1 20 -6 39 -10 41 -4 3 -8 10 -8 15 0 6 4 8 8 5
16 -9 10 36 -6 54 -16 17 -63 40 -80 40 -4 0 -19 -7 -34 -14z"/>
<path d="M20922 7619 c2 -7 10 -15 17 -17 8 -3 12 1 9 9 -2 7 -10 15 -17 17
-8 3 -12 -1 -9 -9z"/>
<path d="M19810 7586 c0 -8 5 -18 10 -21 6 -3 10 3 10 14 0 12 -4 21 -10 21
-5 0 -10 -6 -10 -14z"/>
<path d="M15603 7576 c-3 -6 -3 -8 2 -4 4 4 13 3 20 -2 8 -7 12 -5 12 3 0 16
-25 18 -34 3z"/>
<path d="M20955 7580 c3 -5 8 -10 11 -10 2 0 4 5 4 10 0 6 -5 10 -11 10 -5 0
-7 -4 -4 -10z"/>
<path d="M21185 7570 c-3 -5 -1 -10 4 -10 6 0 11 5 11 10 0 6 -2 10 -4 10 -3
0 -8 -4 -11 -10z"/>
<path d="M19842 7557 c-21 -25 33 -63 75 -52 29 7 93 47 93 58 0 13 -16 7 -38
-14 -31 -28 -84 -36 -105 -14 -10 9 -15 21 -12 26 9 14 -1 11 -13 -4z"/>
<path d="M20980 7546 c0 -9 5 -16 10 -16 6 0 10 4 10 9 0 6 -4 13 -10 16 -5 3
-10 -1 -10 -9z"/>
<path d="M20537 7502 c36 -55 53 -76 58 -71 8 8 -19 59 -31 59 -7 0 -14 9 -17
20 -3 11 -10 20 -17 20 -8 0 -5 -10 7 -28z"/>
<path d="M21370 7449 c0 -5 5 -7 10 -4 6 3 10 8 10 11 0 2 -4 4 -10 4 -5 0
-10 -5 -10 -11z"/>
<path d="M21340 7419 c0 -5 5 -7 10 -4 6 3 10 8 10 11 0 2 -4 4 -10 4 -5 0
-10 -5 -10 -11z"/>
<path d="M21310 7400 c0 -5 5 -10 10 -10 6 0 10 5 10 10 0 6 -4 10 -10 10 -5
0 -10 -4 -10 -10z"/>
<path d="M15050 7383 c0 -5 12 -14 28 -21 50 -25 53 -25 46 -8 -3 9 -14 16
-24 16 -11 0 -22 5 -25 10 -7 12 -25 13 -25 3z"/>
<path d="M21276 7374 c-11 -7 -18 -16 -15 -18 2 -2 13 2 23 10 11 7 18 16 15
18 -2 2 -13 -2 -23 -10z"/>
<path d="M21220 7330 c-14 -11 -20 -20 -15 -19 13 0 50 28 44 33 -2 3 -15 -4
-29 -14z"/>
<path d="M21175 7300 c-3 -5 -1 -10 4 -10 6 0 11 5 11 10 0 6 -2 10 -4 10 -3
0 -8 -4 -11 -10z"/>
<path d="M21123 7258 c-18 -11 -33 -24 -33 -29 0 -11 17 -12 22 -1 2 4 16 17
32 30 35 27 23 27 -21 0z"/>
<path d="M20720 7250 c0 -5 5 -10 10 -10 6 0 10 5 10 10 0 6 -4 10 -10 10 -5
0 -10 -4 -10 -10z"/>
<path d="M21060 7210 c0 -5 -5 -10 -11 -10 -14 0 -43 -29 -36 -36 3 -4 16 3
28 15 13 12 26 21 31 21 4 0 8 5 8 10 0 6 -4 10 -10 10 -5 0 -10 -4 -10 -10z"/>
<path d="M15455 7172 c19 -21 104 -61 110 -52 3 4 -1 10 -7 13 -7 2 -11 6 -8
9 9 8 71 -12 65 -22 -3 -4 1 -7 7 -6 7 1 14 6 15 11 0 6 -3 9 -8 8 -14 -4 -11
15 4 20 6 2 -9 3 -34 2 -26 -1 -52 -5 -58 -9 -5 -4 -30 3 -53 15 -24 12 -38
16 -33 11z"/>
<path d="M15686 7158 c3 -5 10 -6 15 -3 13 9 11 12 -6 12 -8 0 -12 -4 -9 -9z"/>
<path d="M20980 7152 c0 -5 -11 -15 -25 -22 -14 -7 -25 -17 -25 -22 0 -4 16 2
35 14 34 23 45 38 25 38 -5 0 -10 -4 -10 -8z"/>
<path d="M15660 7148 c-1 -5 -3 -11 -4 -15 -5 -26 -20 -34 -52 -28 -46 8 -43
1 14 -25 87 -42 112 -51 112 -40 0 5 -7 10 -16 10 -9 0 -12 5 -8 13 4 6 3 9
-1 4 -5 -4 -17 1 -28 10 -10 10 -21 17 -23 16 -2 -2 -4 -1 -4 2 0 3 0 8 0 11
0 4 10 -1 23 -9 15 -9 29 -12 37 -7 10 6 7 10 -12 15 -17 4 -29 15 -31 28 -2
12 -5 19 -7 15z"/>
<path d="M20597 7126 c-9 -7 -17 -19 -17 -27 0 -9 8 -6 22 9 25 24 22 37 -5
18z"/>
<path d="M20900 7090 c0 -5 5 -10 10 -10 6 0 10 5 10 10 0 6 -4 10 -10 10 -5
0 -10 -4 -10 -10z"/>
<path d="M20555 7080 c-3 -5 1 -10 10 -10 9 0 13 5 10 10 -3 6 -8 10 -10 10
-2 0 -7 -4 -10 -10z"/>
<path d="M20875 7070 c-3 -5 -1 -10 4 -10 6 0 11 5 11 10 0 6 -2 10 -4 10 -3
0 -8 -4 -11 -10z"/>
<path d="M20529 7045 c-3 -55 -1 -86 4 -92 4 -3 7 19 7 50 0 32 -2 57 -5 57
-3 0 -5 -7 -6 -15z"/>
<path d="M20816 7029 c-14 -11 -26 -26 -26 -32 0 -7 7 -4 14 6 7 9 16 17 20
17 4 0 14 7 22 15 23 22 1 18 -30 -6z"/>
<path d="M20744 6975 c-10 -8 -14 -14 -9 -14 6 0 19 6 29 14 11 8 15 15 10 15
-6 0 -19 -7 -30 -15z"/>
<path d="M20710 6939 c0 -5 5 -7 10 -4 6 3 10 8 10 11 0 2 -4 4 -10 4 -5 0
-10 -5 -10 -11z"/>
<path d="M8096 6911 c-9 -10 -38 -29 -64 -42 -26 -13 -50 -28 -54 -34 -9 -13
1 -183 12 -210 5 -11 13 -54 19 -95 14 -106 27 -179 39 -225 6 -22 18 -78 28
-125 16 -80 36 -160 70 -290 8 -30 19 -71 24 -90 17 -65 35 -125 41 -135 4 -5
10 -26 14 -45 4 -19 11 -41 16 -50 4 -8 17 -42 28 -75 11 -33 30 -85 41 -115
12 -30 24 -64 27 -75 3 -11 9 -24 13 -30 3 -5 14 -32 24 -60 10 -27 24 -63 31
-80 7 -16 17 -41 23 -55 43 -105 212 -445 296 -595 12 -22 35 -62 50 -90 15
-27 34 -57 42 -66 8 -8 14 -19 14 -23 0 -15 150 -234 164 -239 15 -6 76 43 76
60 0 6 7 13 15 17 8 3 15 10 15 17 0 10 53 85 70 99 4 3 15 19 25 37 17 28 17
34 4 50 -8 10 -23 34 -33 53 -11 19 -36 60 -55 90 -20 30 -44 71 -55 90 -10
19 -21 37 -25 40 -3 3 -20 32 -37 65 -53 101 -69 130 -74 135 -3 3 -13 23 -24
45 -10 22 -22 47 -27 55 -5 8 -12 22 -15 30 -4 8 -22 49 -41 90 -48 102 -68
148 -88 195 -32 77 -38 90 -51 117 -8 14 -14 33 -14 41 0 9 -8 30 -17 49 -27
54 -30 62 -37 96 -4 17 -12 34 -17 37 -5 4 -9 16 -9 28 0 12 -7 35 -15 51 -8
15 -15 39 -15 52 0 12 -4 25 -9 29 -5 3 -13 20 -16 38 -4 17 -14 55 -22 82 -8
28 -19 68 -25 90 -11 42 -25 91 -54 190 -16 56 -53 105 -79 105 -5 0 -36 27
-67 61 -43 45 -58 68 -58 89 0 16 -4 31 -9 34 -5 3 -12 34 -16 68 -4 34 -12
75 -17 92 -5 17 -13 76 -18 131 -14 148 -26 215 -39 215 -4 0 -16 -9 -25 -19z"/>
<path d="M20560 6927 c0 -3 7 -13 16 -21 21 -22 63 -20 99 4 36 24 29 25 -24
4 -36 -14 -41 -14 -65 1 -14 10 -26 15 -26 12z"/>
<path d="M15933 6848 c2 -7 10 -12 16 -10 7 1 22 -4 34 -13 12 -8 26 -15 32
-15 11 0 -40 33 -68 43 -13 5 -17 3 -14 -5z"/>
<path d="M16195 6720 c3 -5 8 -10 11 -10 2 0 4 5 4 10 0 6 -5 10 -11 10 -5 0
-7 -4 -4 -10z"/>
<path d="M16224 6701 c4 -6 11 -11 17 -11 5 0 38 -13 72 -30 87 -41 98 -37 15
5 -80 40 -113 52 -104 36z"/>
<path d="M15095 5597 c-4 -10 -5 -21 -1 -24 10 -10 18 4 13 24 -4 17 -4 17
-12 0z"/>
<path d="M15070 5541 c0 -25 6 -27 13 -6 4 8 2 17 -3 20 -6 4 -10 -3 -10 -14z"/>
<path d="M14153 5537 c0 -8 6 -14 14 -14 9 0 10 4 2 14 -6 7 -12 13 -14 13 -1
0 -2 -6 -2 -13z"/>
<path d="M14896 5507 c3 -10 9 -15 12 -12 3 3 0 11 -7 18 -10 9 -11 8 -5 -6z"/>
<path d="M15038 5494 c3 -17 8 -22 15 -15 11 11 3 41 -11 41 -5 0 -7 -12 -4
-26z"/>
<path d="M18940 5493 c-8 -3 -42 -22 -75 -43 -42 -27 -76 -40 -115 -44 -237
-28 -393 -170 -444 -406 -19 -86 -23 -498 -6 -560 5 -19 14 -75 19 -125 6 -49
17 -130 25 -180 9 -57 11 -95 5 -106 -12 -23 -11 -114 2 -164 22 -88 40 -142
65 -200 7 -16 15 -37 18 -45 3 -8 19 -37 36 -65 16 -27 33 -57 37 -65 24 -49
152 -178 229 -231 l72 -48 6 -68 c8 -82 24 -160 38 -190 7 -14 8 -43 3 -80 -5
-32 -9 -188 -10 -348 -2 -242 -5 -300 -20 -350 -9 -33 -21 -67 -25 -75 -4 -9
-11 -30 -14 -48 -4 -17 -12 -34 -17 -37 -5 -4 -9 -13 -9 -22 0 -40 -163 -209
-255 -263 -132 -78 -283 -111 -417 -91 -204 30 -377 139 -483 305 -19 30 -35
61 -35 68 0 7 -7 22 -15 32 -8 11 -15 29 -15 41 0 12 -5 26 -12 33 -17 17 -17
269 0 347 27 124 74 271 95 295 12 14 26 17 83 13 132 -9 272 46 364 143 91
97 113 138 145 277 19 86 19 115 -1 185 -44 158 -60 188 -141 267 -121 120
-268 170 -432 146 -140 -20 -236 -75 -340 -196 -60 -71 -119 -261 -106 -344
17 -104 42 -178 84 -246 25 -41 138 -155 153 -155 12 0 10 -17 -6 -53 -92
-213 -131 -456 -102 -637 22 -141 49 -226 96 -300 5 -8 17 -29 25 -47 19 -37
141 -165 205 -214 62 -48 84 -60 170 -97 127 -53 190 -65 345 -65 155 0 218
12 345 65 102 43 165 85 248 162 60 57 182 218 182 241 0 4 6 21 14 38 7 18
19 46 26 62 7 17 17 48 21 70 4 22 12 60 18 85 27 121 33 213 26 398 -9 232 3
348 41 383 13 12 24 28 24 35 0 6 7 25 15 40 8 16 15 36 15 45 0 9 15 32 33
51 24 26 49 40 97 54 83 23 180 67 250 114 170 115 394 401 378 484 -4 17 8
49 38 103 24 43 60 112 81 153 21 41 41 77 46 78 4 2 7 11 7 21 0 9 7 26 15
37 8 10 15 24 15 31 0 11 50 129 70 165 6 10 10 28 10 41 0 12 6 31 14 42 7
11 16 34 19 50 6 30 20 88 39 155 11 41 6 210 -9 260 -36 125 -136 237 -279
314 -31 17 -64 45 -83 72 -41 59 -84 84 -144 84 -60 0 -79 -10 -108 -57 -18
-30 -23 -53 -23 -111 0 -67 2 -74 29 -102 43 -42 105 -52 181 -29 l58 18 45
-25 c62 -34 122 -90 157 -144 23 -38 28 -58 32 -130 2 -47 -1 -107 -6 -135
-19 -90 -33 -140 -43 -149 -5 -6 -9 -18 -9 -28 0 -9 -7 -34 -16 -55 -9 -21
-21 -49 -26 -63 -91 -235 -214 -457 -268 -485 -33 -17 -100 -84 -100 -100 0
-17 -119 -161 -178 -217 -231 -213 -537 -194 -724 44 -38 49 -56 76 -64 98 -3
8 -10 23 -15 33 -14 27 -69 193 -69 210 0 26 -34 92 -61 119 -19 19 -28 44
-38 99 -7 41 -17 97 -22 124 -28 138 -43 540 -25 660 10 70 59 176 99 216 40
41 143 88 208 95 53 6 61 4 115 -29 33 -20 71 -39 87 -43 44 -10 93 4 126 38
29 30 31 36 31 111 0 91 -16 128 -66 152 -32 15 -75 18 -104 8z m-1085 -1857
c76 -35 151 -96 175 -141 11 -22 25 -47 29 -55 45 -81 40 -247 -11 -340 -48
-89 -122 -149 -222 -179 -122 -38 -224 -22 -331 52 -74 51 -84 62 -117 129
-65 134 -71 174 -41 269 61 193 219 308 403 293 37 -3 87 -15 115 -28z"/>
<path d="M17626 3526 c-172 -64 -224 -297 -94 -425 70 -70 196 -93 278 -51 56
29 107 76 127 118 24 50 24 175 1 223 -21 42 -80 104 -123 126 -41 22 -141 27
-189 9z"/>
<path d="M14296 5458 c3 -5 10 -6 15 -3 13 9 11 12 -6 12 -8 0 -12 -4 -9 -9z"/>
<path d="M14370 5466 c0 -2 8 -10 18 -17 15 -13 16 -12 3 4 -13 16 -21 21 -21
13z"/>
<path d="M14409 5458 c11 -15 41 -15 41 -1 0 3 -6 3 -14 0 -7 -3 -20 0 -27 6
-11 10 -11 9 0 -5z"/>
<path d="M14527 5463 c-12 -11 -8 -19 13 -20 11 -1 23 3 26 9 5 7 2 8 -6 3 -7
-4 -15 -2 -19 4 -4 6 -10 8 -14 4z"/>
<path d="M14745 5450 c3 -5 8 -10 11 -10 2 0 4 5 4 10 0 6 -5 10 -11 10 -5 0
-7 -4 -4 -10z"/>
<path d="M14850 5449 c0 -5 4 -8 9 -4 5 3 13 1 16 -5 4 -7 11 -7 18 -2 7 5 20
8 30 7 9 -2 15 0 12 5 -6 9 -24 8 -42 -3 -8 -5 -13 -4 -13 2 0 6 -7 11 -15 11
-8 0 -15 -5 -15 -11z"/>
<path d="M14330 5422 c0 -4 5 -13 10 -18 7 -7 5 -17 -6 -30 -13 -16 -15 -16
-10 -2 3 10 0 20 -6 24 -6 4 -8 3 -5 -3 4 -6 0 -16 -8 -23 -12 -10 -15 -10
-15 1 0 11 -2 11 -10 -1 -6 -9 -5 -20 3 -29 7 -9 8 -12 1 -8 -6 3 -16 -5 -23
-21 -12 -25 -12 -26 6 -11 10 9 26 19 36 22 9 4 17 12 17 19 0 9 -3 9 -11 -2
-9 -13 -10 -13 -6 0 2 8 9 15 16 15 13 0 51 44 51 60 0 6 -5 3 -10 -5 -8 -13
-10 -12 -10 3 0 9 -4 17 -10 17 -5 0 -10 -4 -10 -8z"/>
<path d="M14365 5380 c-3 -5 -2 -10 4 -10 5 0 13 5 16 10 3 6 2 10 -4 10 -5 0
-13 -4 -16 -10z"/>
<path d="M14340 5344 c-14 -15 -7 -30 21 -44 13 -7 19 -7 19 0 0 5 -7 10 -15
10 -9 0 -15 9 -14 23 0 17 2 18 7 6 6 -14 9 -15 20 -3 7 8 11 14 10 15 -26 6
-39 5 -48 -7z"/>
<path d="M9560 4380 c-20 -12 -46 -36 -58 -54 -12 -18 -30 -41 -40 -52 -10
-10 -47 -57 -82 -104 -35 -47 -67 -87 -70 -90 -4 -3 -47 -59 -95 -125 -49 -66
-99 -131 -112 -145 -13 -14 -23 -28 -23 -32 0 -3 -6 -13 -13 -20 -35 -36 -97
-129 -105 -159 -8 -34 2 -82 23 -105 17 -18 72 -44 92 -44 33 0 87 47 143 124
30 41 63 78 72 81 18 6 65 -25 138 -91 19 -17 85 -69 145 -114 61 -45 118 -89
127 -97 19 -17 14 -39 -17 -75 -11 -13 -49 -61 -85 -108 -35 -47 -67 -87 -70
-90 -3 -3 -20 -28 -38 -56 -62 -98 -32 -180 66 -178 41 1 50 5 84 45 20 23 45
58 55 76 10 18 26 36 36 39 18 6 91 -35 140 -79 13 -12 33 -29 43 -37 60 -48
171 -135 249 -195 50 -39 97 -75 105 -82 8 -7 44 -36 80 -64 36 -28 81 -64
100 -79 19 -15 100 -79 180 -141 80 -62 179 -139 220 -171 289 -225 482 -369
510 -380 35 -14 107 -5 160 20 124 59 135 58 231 -14 120 -89 182 -111 225
-79 26 20 56 19 80 -3 10 -10 46 -38 79 -62 33 -25 88 -67 121 -95 62 -51 226
-179 318 -248 28 -22 65 -51 81 -66 76 -68 105 -77 105 -31 0 48 -25 95 -66
126 -40 29 -145 114 -154 125 -3 3 -45 36 -95 74 -49 37 -115 89 -146 114 -30
25 -71 57 -89 71 -43 31 -103 82 -111 93 -3 5 -4 39 -1 76 l4 68 -94 82 c-110
95 -135 133 -118 177 7 16 14 70 17 121 5 83 4 94 -17 128 -12 20 -64 69 -114
108 -91 72 -277 220 -328 260 -15 12 -50 40 -78 62 -29 22 -80 62 -114 88 -33
26 -94 73 -135 105 -40 31 -110 86 -155 123 -44 36 -128 101 -186 144 -58 44
-110 84 -116 90 -7 5 -35 28 -64 50 -168 129 -300 237 -300 245 0 5 27 45 60
89 57 75 60 83 60 136 0 52 -2 57 -32 76 -68 42 -122 9 -233 -144 -89 -123
-143 -187 -157 -187 -5 0 -14 5 -21 10 -7 6 -64 51 -127 101 -63 49 -146 114
-185 145 -38 30 -77 59 -85 65 -13 8 -13 11 3 20 9 5 17 16 17 24 0 7 4 15 8
17 9 4 91 113 110 146 16 29 15 67 -2 100 -34 66 -97 87 -156 52z m673 -769
c7 -6 30 -25 52 -43 22 -19 64 -51 93 -73 57 -43 63 -60 31 -96 -11 -13 -30
-35 -42 -49 -47 -54 -107 -140 -107 -153 0 -17 20 -37 38 -37 26 0 83 53 128
122 25 38 57 76 69 84 22 14 26 13 72 -22 123 -94 125 -100 57 -171 -51 -53
-114 -144 -114 -165 0 -19 38 -40 61 -33 19 6 99 110 99 129 0 17 63 76 82 76
21 0 77 -35 133 -83 l39 -34 -44 -57 c-139 -177 -145 -187 -118 -214 36 -36
82 2 135 108 9 19 26 41 37 49 10 8 26 22 35 33 8 10 22 18 31 18 13 0 76 -46
188 -138 19 -15 51 -40 72 -57 21 -16 62 -49 92 -72 97 -76 172 -134 285 -219
61 -46 121 -97 133 -112 26 -32 24 -55 -20 -313 l-12 -65 -152 -62 c-83 -34
-162 -62 -174 -62 -12 0 -36 13 -54 28 -18 16 -49 39 -68 52 -31 22 -110 83
-165 129 -11 9 -36 27 -55 41 -19 13 -68 52 -108 85 -41 33 -90 71 -110 85
-20 14 -46 34 -57 46 -11 11 -85 71 -165 132 -80 61 -170 130 -200 154 -30 24
-131 103 -225 176 -93 73 -177 138 -185 145 -9 7 -45 34 -80 62 -110 84 -114
89 -99 114 8 11 17 21 21 21 5 0 8 6 8 13 0 7 10 23 23 37 13 14 52 63 87 110
78 102 74 98 106 135 13 17 35 46 47 65 27 44 68 90 79 90 5 0 14 -4 21 -9z"/>
<path d="M11024 2847 c-33 -37 -74 -95 -74 -104 0 -5 -14 -22 -31 -39 -17 -16
-48 -52 -69 -80 -21 -28 -44 -57 -52 -65 -36 -40 -38 -55 -10 -81 15 -14 43
-35 62 -48 19 -13 37 -27 40 -30 3 -3 41 -32 85 -65 44 -33 89 -68 100 -78 11
-10 53 -43 95 -74 41 -32 109 -85 150 -118 41 -34 80 -64 86 -68 11 -6 83 20
190 68 55 25 64 38 64 90 0 19 4 44 9 57 5 13 12 53 16 88 l7 65 -72 55 c-40
30 -91 67 -113 83 -23 15 -55 40 -72 55 -16 16 -64 54 -105 85 -42 31 -84 64
-95 74 -11 10 -36 30 -55 43 -32 22 -62 47 -94 75 -39 35 -42 35 -62 12z"/>
<path d="M17015 2520 c-248 -131 -335 -173 -505 -248 -211 -92 -271 -116 -452
-178 -478 -166 -940 -265 -1428 -306 -202 -17 -842 -17 -1010 0 -366 38 -617
79 -871 142 -123 30 -149 37 -304 80 -122 35 -138 36 -132 14 3 -11 8 -37 12
-59 12 -70 24 -82 295 -285 124 -94 135 -98 340 -134 704 -124 1333 -140 2020
-52 306 39 380 55 848 177 323 83 792 268 1137 447 l110 57 6 135 c6 118 13
170 35 243 7 23 2 22 -101 -33z"/>
</g>
</svg>
